<svg xmlns="http://www.w3.org/2000/svg" viewBox="0 0 149.83 68.1"><defs><style>.cls-1{fill:#fff;}</style></defs><title>Asset 1</title><g id="Layer_2" data-name="Layer 2"><g id="Layer_1-2" data-name="Layer 1"><polygon class="cls-1" points="47.06 0.64 53.99 0.64 53.99 0 47.06 0 47.06 0.64 47.06 0.64"/><polygon class="cls-1" points="47.06 32.1 53.99 32.1 53.99 31.46 47.06 31.46 47.06 32.1 47.06 32.1"/><polygon class="cls-1" points="47.06 58.75 53.99 58.75 53.99 58.11 47.06 58.11 47.06 58.75 47.06 58.75"/><polygon class="cls-1" points="47.06 68.11 53.99 68.11 53.99 67.47 47.06 67.47 47.06 68.11 47.06 68.11"/><path class="cls-1" d="M47,51.78h4v-.56H47.81l3.1-3.88v-.56H47.25v.56h2.87L47,51.22v.56Zm7.69-3.62h-.6v2a1.47,1.47,0,0,1-.07.45,1,1,0,0,1-.2.36.89.89,0,0,1-.33.24,1.21,1.21,0,0,1-.47.08.73.73,0,0,1-.54-.2.72.72,0,0,1-.2-.53V48.16h-.6v2.38a2.24,2.24,0,0,0,.06.54,1,1,0,0,0,.21.42,1,1,0,0,0,.38.27,1.57,1.57,0,0,0,.6.1,1.43,1.43,0,0,0,.69-.16,1.23,1.23,0,0,0,.49-.5h0v.57h.56V48.16Zm1.05,3.62h.6V50.17a2.48,2.48,0,0,1,.07-.62,1.19,1.19,0,0,1,.22-.46,1,1,0,0,1,.41-.29,1.68,1.68,0,0,1,.61-.1v-.63a1.34,1.34,0,0,0-.8.2,1.61,1.61,0,0,0-.53.65h0v-.76h-.56v3.62Zm3.17-5h-.6v.73h.6v-.73Zm-.6,5h.6V48.16h-.6v3.62Zm4.78-2.46a1.47,1.47,0,0,0-.16-.56,1.19,1.19,0,0,0-.34-.39,1.45,1.45,0,0,0-.48-.23,2.19,2.19,0,0,0-.58-.07,1.75,1.75,0,0,0-.75.15,1.5,1.5,0,0,0-.53.41,1.76,1.76,0,0,0-.32.62,2.66,2.66,0,0,0-.11.76,2.44,2.44,0,0,0,.11.75,1.63,1.63,0,0,0,.32.58,1.45,1.45,0,0,0,.53.38,1.84,1.84,0,0,0,.73.14,1.56,1.56,0,0,0,1.09-.37,1.68,1.68,0,0,0,.5-1h-.61a1,1,0,0,1-.31.65,1,1,0,0,1-.69.23,1,1,0,0,1-.49-.11,1,1,0,0,1-.33-.3,1.31,1.31,0,0,1-.19-.42,2,2,0,0,1-.06-.49,2.46,2.46,0,0,1,.06-.53,1.32,1.32,0,0,1,.19-.45,1,1,0,0,1,.35-.32,1.11,1.11,0,0,1,.54-.12.84.84,0,0,1,.9.72ZM64,51.78h.59v-2a1.46,1.46,0,0,1,.07-.45,1,1,0,0,1,.2-.36.89.89,0,0,1,.33-.24,1.21,1.21,0,0,1,.47-.08.73.73,0,0,1,.54.2.72.72,0,0,1,.2.53v2.45H67V49.4a2.24,2.24,0,0,0-.06-.54,1,1,0,0,0-.21-.42,1,1,0,0,0-.38-.27,1.57,1.57,0,0,0-.6-.1,1.66,1.66,0,0,0-.33,0,1.41,1.41,0,0,0-.33.11,1.15,1.15,0,0,0-.28.19.82.82,0,0,0-.2.28h0V46.78H64v5Zm10-5H73.3V50A1.42,1.42,0,0,1,73,51a1.27,1.27,0,0,1-1,.35A1.41,1.41,0,0,1,71,51a1.35,1.35,0,0,1-.36-1V46.78H70V50a2.39,2.39,0,0,0,.14.86,1.55,1.55,0,0,0,.4.6,1.62,1.62,0,0,0,.64.35,3.07,3.07,0,0,0,.86.11,2,2,0,0,0,1.45-.49A1.89,1.89,0,0,0,74,50V46.78Zm1.13,5h.6v-2a1.46,1.46,0,0,1,.07-.45,1,1,0,0,1,.2-.36.89.89,0,0,1,.33-.24,1.21,1.21,0,0,1,.47-.08.73.73,0,0,1,.54.2.72.72,0,0,1,.2.53v2.45h.6V49.4a2.24,2.24,0,0,0-.06-.54,1,1,0,0,0-.21-.42,1,1,0,0,0-.38-.27,1.57,1.57,0,0,0-.6-.1,1.43,1.43,0,0,0-.69.16,1.23,1.23,0,0,0-.49.5h0v-.57H75.1v3.62Zm4.67-5h-.59v.73h.59v-.73Zm-.59,5h.59V48.16h-.59v3.62Zm4.62-3.62h-.62l-1,3h0l-1-3H80.5l1.34,3.62h.64l1.32-3.62Zm1,1.46a1.21,1.21,0,0,1,.09-.4,1,1,0,0,1,.21-.33,1,1,0,0,1,.32-.22,1,1,0,0,1,.42-.08,1,1,0,0,1,.41.08,1,1,0,0,1,.54.54,1.23,1.23,0,0,1,.1.4Zm2.06,1a.84.84,0,0,1-.32.53,1,1,0,0,1-.62.17,1.23,1.23,0,0,1-.51-.1,1,1,0,0,1-.36-.26,1,1,0,0,1-.2-.38,1.43,1.43,0,0,1-.06-.45h2.71a2.9,2.9,0,0,0-.06-.69,2,2,0,0,0-.27-.67,1.59,1.59,0,0,0-.51-.51,1.48,1.48,0,0,0-.8-.2,1.65,1.65,0,0,0-.68.14,1.6,1.6,0,0,0-.54.39,1.79,1.79,0,0,0-.35.6,2.19,2.19,0,0,0-.13.75,2.9,2.9,0,0,0,.12.76,1.67,1.67,0,0,0,.33.6,1.52,1.52,0,0,0,.54.4,1.83,1.83,0,0,0,.75.14,1.63,1.63,0,0,0,1-.31,1.47,1.47,0,0,0,.53-.92Zm1.46,1.15h.59V50.17a2.52,2.52,0,0,1,.07-.62,1.2,1.2,0,0,1,.22-.46,1,1,0,0,1,.41-.29,1.68,1.68,0,0,1,.61-.1v-.63a1.34,1.34,0,0,0-.8.2,1.61,1.61,0,0,0-.53.65h0v-.76h-.56v3.62Zm2.38-1.14a1.3,1.3,0,0,0,.14.57,1.05,1.05,0,0,0,.34.38,1.46,1.46,0,0,0,.48.21,2.41,2.41,0,0,0,.58.07,2.77,2.77,0,0,0,.55-.06,1.55,1.55,0,0,0,.5-.19,1.05,1.05,0,0,0,.36-.35,1,1,0,0,0,.14-.54.84.84,0,0,0-.1-.43.91.91,0,0,0-.27-.29,1.44,1.44,0,0,0-.38-.18l-.44-.12-.42-.09a2.4,2.4,0,0,1-.38-.11.9.9,0,0,1-.28-.17.34.34,0,0,1-.11-.26.36.36,0,0,1,.07-.23.48.48,0,0,1,.18-.14.9.9,0,0,1,.25-.07l.27,0a1.35,1.35,0,0,1,.29,0,.84.84,0,0,1,.26.1.65.65,0,0,1,.2.19.58.58,0,0,1,.1.29h.59a1.33,1.33,0,0,0-.14-.55,1,1,0,0,0-.32-.35,1.31,1.31,0,0,0-.46-.18,2.87,2.87,0,0,0-.56-.05,2,2,0,0,0-.48.06,1.45,1.45,0,0,0-.43.18,1,1,0,0,0-.32.32.86.86,0,0,0-.12.47.85.85,0,0,0,.1.43.86.86,0,0,0,.27.29,1.57,1.57,0,0,0,.38.18l.43.12.44.09a2.1,2.1,0,0,1,.38.12.77.77,0,0,1,.27.18.4.4,0,0,1,.1.28.44.44,0,0,1-.08.28.54.54,0,0,1-.21.16,1.08,1.08,0,0,1-.28.08l-.29,0a1.76,1.76,0,0,1-.35,0,1,1,0,0,1-.31-.12.64.64,0,0,1-.22-.21.66.66,0,0,1-.09-.34Zm4.54-3.86h-.59v.73h.59v-.73Zm-.59,5h.59V48.16h-.59v3.62Zm2.51-4.7h-.6v1.08H96v.52h.62V51a1.4,1.4,0,0,0,0,.41.49.49,0,0,0,.15.24.58.58,0,0,0,.27.12,2.13,2.13,0,0,0,.4,0h.45v-.52h-.5a.3.3,0,0,1-.14,0,.18.18,0,0,1-.07-.1.63.63,0,0,1,0-.17V48.68h.72v-.52h-.72V47.07Zm4.67,1.08h-.63l-1,3h0l-1.06-3h-.67l1.43,3.6-.25.62a.71.71,0,0,1-.2.24.47.47,0,0,1-.29.08l-.18,0-.17-.06v.55l.2,0h.21a1.08,1.08,0,0,0,.35-.05.72.72,0,0,0,.27-.17,1.27,1.27,0,0,0,.22-.3,3.91,3.91,0,0,0,.21-.45l1.57-4.1Zm3,1.23a1.27,1.27,0,0,1,.24-.43,1,1,0,0,1,.36-.27,1.1,1.1,0,0,1,.87,0,1,1,0,0,1,.36.27,1.27,1.27,0,0,1,.24.43,2,2,0,0,1,0,1.17,1.23,1.23,0,0,1-.24.43,1,1,0,0,1-.36.26,1.1,1.1,0,0,1-.87,0,1,1,0,0,1-.36-.26,1.23,1.23,0,0,1-.24-.43,2,2,0,0,1,0-1.17Zm-.61,1.33a1.7,1.7,0,0,0,.34.6,1.6,1.6,0,0,0,.55.4,2,2,0,0,0,1.51,0,1.57,1.57,0,0,0,.55-.4,1.67,1.67,0,0,0,.34-.6,2.37,2.37,0,0,0,.11-.74,2.4,2.4,0,0,0-.11-.75,1.67,1.67,0,0,0-.34-.6,1.57,1.57,0,0,0-.55-.4,2,2,0,0,0-1.51,0,1.6,1.6,0,0,0-.55.4,1.7,1.7,0,0,0-.34.6,2.43,2.43,0,0,0-.11.75,2.4,2.4,0,0,0,.11.74Zm4.45,1.06h.59V48.68h.7v-.52h-.7v-.5a.37.37,0,0,1,.12-.32.58.58,0,0,1,.34-.08H110l.17,0v-.52l-.19,0h-.19A1.09,1.09,0,0,0,109,47a.85.85,0,0,0-.26.67v.54h-.61v.52h.61v3.09Zm4.67-4.7h-.6v1.08h-.62v.52h.62V51a1.4,1.4,0,0,0,0,.41.49.49,0,0,0,.15.24.58.58,0,0,0,.27.12,2.13,2.13,0,0,0,.39,0h.46v-.52h-.5a.3.3,0,0,1-.14,0,.18.18,0,0,1-.07-.1.63.63,0,0,1,0-.17V48.68h.72v-.52h-.72V47.07Zm1.52,4.7h.59v-2a1.45,1.45,0,0,1,.07-.45,1,1,0,0,1,.2-.36.89.89,0,0,1,.33-.24,1.21,1.21,0,0,1,.47-.08.73.73,0,0,1,.54.2.72.72,0,0,1,.2.53v2.45h.6V49.4a2.28,2.28,0,0,0-.06-.54,1,1,0,0,0-.21-.42,1,1,0,0,0-.38-.27,1.57,1.57,0,0,0-.6-.1,1.66,1.66,0,0,0-.33,0,1.41,1.41,0,0,0-.33.11,1.13,1.13,0,0,0-.28.19.82.82,0,0,0-.2.28h0V46.78h-.59v5Zm4.49-2.16a1.27,1.27,0,0,1,.09-.4,1.08,1.08,0,0,1,.21-.33,1,1,0,0,1,.32-.22,1,1,0,0,1,1.36.54,1.23,1.23,0,0,1,.09.4Zm2.07,1a.84.84,0,0,1-.32.53,1,1,0,0,1-.62.17,1.23,1.23,0,0,1-.51-.1,1,1,0,0,1-.36-.26,1,1,0,0,1-.2-.38,1.46,1.46,0,0,1-.06-.45h2.71a2.85,2.85,0,0,0-.06-.69,2,2,0,0,0-.27-.67,1.59,1.59,0,0,0-.51-.51,1.49,1.49,0,0,0-.8-.2,1.64,1.64,0,0,0-.68.14,1.59,1.59,0,0,0-.54.39,1.79,1.79,0,0,0-.35.6,2.19,2.19,0,0,0-.13.75,2.94,2.94,0,0,0,.12.76,1.67,1.67,0,0,0,.33.6,1.52,1.52,0,0,0,.54.4,1.83,1.83,0,0,0,.75.14,1.62,1.62,0,0,0,1-.31,1.46,1.46,0,0,0,.53-.92Zm5.08-3.25h0l.83,2.33h-1.69l.85-2.33Zm-2.3,4.4H125l.56-1.51h2.11l.55,1.51h.74l-2-5h-.73l-2,5Zm5.26,0h.6V50.17a2.47,2.47,0,0,1,.07-.62,1.17,1.17,0,0,1,.22-.46,1,1,0,0,1,.41-.29,1.68,1.68,0,0,1,.61-.1v-.63a1.34,1.34,0,0,0-.8.2,1.61,1.61,0,0,0-.53.65h0v-.76h-.56v3.62Zm3.56-4.7h-.6v1.08h-.62v.52h.62V51a1.36,1.36,0,0,0,0,.41.5.5,0,0,0,.15.24.59.59,0,0,0,.27.12,2.14,2.14,0,0,0,.4,0h.46v-.52h-.5a.29.29,0,0,1-.14,0,.17.17,0,0,1-.07-.1.68.68,0,0,1,0-.17V48.68h.72v-.52h-.72V47.07Zm1.32,3.56a1.31,1.31,0,0,0,.14.57,1.05,1.05,0,0,0,.34.38,1.46,1.46,0,0,0,.48.21,2.41,2.41,0,0,0,.58.07,2.77,2.77,0,0,0,.55-.06,1.54,1.54,0,0,0,.5-.19,1.05,1.05,0,0,0,.36-.35,1,1,0,0,0,.14-.54.84.84,0,0,0-.1-.43.89.89,0,0,0-.27-.29,1.41,1.41,0,0,0-.38-.18l-.44-.12-.42-.09a2.4,2.4,0,0,1-.38-.11.91.91,0,0,1-.28-.17.34.34,0,0,1-.11-.26.36.36,0,0,1,.07-.23.48.48,0,0,1,.18-.14.91.91,0,0,1,.25-.07l.27,0a1.34,1.34,0,0,1,.29,0,.84.84,0,0,1,.26.1.64.64,0,0,1,.2.19.57.57,0,0,1,.09.29h.6a1.33,1.33,0,0,0-.14-.55.94.94,0,0,0-.32-.35,1.31,1.31,0,0,0-.46-.18,2.86,2.86,0,0,0-.56-.05,2,2,0,0,0-.48.06,1.46,1.46,0,0,0-.43.18,1,1,0,0,0-.32.32.87.87,0,0,0-.12.47.81.81,0,0,0,.37.72,1.57,1.57,0,0,0,.38.18l.43.12.44.09a2,2,0,0,1,.38.12.76.76,0,0,1,.27.18.4.4,0,0,1,.1.28.44.44,0,0,1-.08.28.53.53,0,0,1-.21.16,1.07,1.07,0,0,1-.28.08l-.29,0a1.77,1.77,0,0,1-.35,0,1,1,0,0,1-.31-.12.64.64,0,0,1-.22-.21.67.67,0,0,1-.09-.34Z"/><path class="cls-1" d="M47,42.86h4V42.3H47.78l3.1-3.88v-.56H47.23v.56H50.1L47,42.3v.56Zm7.69-3.62h-.59v2a1.47,1.47,0,0,1-.07.45,1,1,0,0,1-.2.36.89.89,0,0,1-.33.24,1.21,1.21,0,0,1-.47.08.73.73,0,0,1-.54-.2.72.72,0,0,1-.2-.53V39.24h-.6v2.38a2.24,2.24,0,0,0,.06.54,1,1,0,0,0,.21.42,1,1,0,0,0,.38.27,1.57,1.57,0,0,0,.6.1,1.43,1.43,0,0,0,.69-.16,1.23,1.23,0,0,0,.49-.5h0v.57h.56V39.24Zm-2.48-.6h.63v-.73H52.2v.73Zm1.32,0h.63v-.73h-.63v.73Zm2.22,4.21h.6V41.25a2.48,2.48,0,0,1,.07-.62,1.19,1.19,0,0,1,.22-.46,1,1,0,0,1,.41-.29,1.68,1.68,0,0,1,.61-.1v-.63a1.34,1.34,0,0,0-.8.2,1.61,1.61,0,0,0-.53.65h0v-.76h-.56v3.62Zm5.59-2.46a1.47,1.47,0,0,0-.16-.56,1.19,1.19,0,0,0-.34-.39,1.45,1.45,0,0,0-.48-.23,2.19,2.19,0,0,0-.58-.07,1.75,1.75,0,0,0-.75.15,1.5,1.5,0,0,0-.53.41,1.75,1.75,0,0,0-.32.62,2.66,2.66,0,0,0-.1.76,2.43,2.43,0,0,0,.11.75,1.63,1.63,0,0,0,.32.58,1.45,1.45,0,0,0,.53.38,1.84,1.84,0,0,0,.73.14,1.56,1.56,0,0,0,1.09-.37,1.68,1.68,0,0,0,.5-1h-.61a1,1,0,0,1-.31.65,1,1,0,0,1-.69.23,1,1,0,0,1-.49-.11,1,1,0,0,1-.33-.3,1.31,1.31,0,0,1-.19-.42,2,2,0,0,1-.06-.49,2.46,2.46,0,0,1,.06-.53,1.32,1.32,0,0,1,.19-.45,1,1,0,0,1,.35-.32,1.11,1.11,0,0,1,.54-.12.84.84,0,0,1,.9.72Zm.86,2.46h.6v-2a1.46,1.46,0,0,1,.07-.45,1,1,0,0,1,.2-.36.89.89,0,0,1,.33-.24,1.21,1.21,0,0,1,.47-.08.73.73,0,0,1,.54.2.72.72,0,0,1,.2.53v2.45h.6V40.48a2.24,2.24,0,0,0-.06-.54,1,1,0,0,0-.21-.42,1,1,0,0,0-.39-.27,1.57,1.57,0,0,0-.59-.1,1.66,1.66,0,0,0-.33,0,1.41,1.41,0,0,0-.33.11,1.15,1.15,0,0,0-.28.19.82.82,0,0,0-.2.28h0V37.87h-.6v5Zm4.49-2.16a1.24,1.24,0,0,1,.09-.4A1.06,1.06,0,0,1,67,40a1,1,0,0,1,.32-.22,1,1,0,0,1,.42-.08,1,1,0,0,1,.95.62,1.22,1.22,0,0,1,.09.4Zm2.06,1a.84.84,0,0,1-.32.53,1,1,0,0,1-.62.17,1.23,1.23,0,0,1-.51-.1,1,1,0,0,1-.36-.26,1,1,0,0,1-.2-.38,1.44,1.44,0,0,1-.06-.45h2.71a2.88,2.88,0,0,0-.06-.69,2,2,0,0,0-.27-.67,1.59,1.59,0,0,0-.51-.51,1.48,1.48,0,0,0-.8-.2,1.65,1.65,0,0,0-.68.14,1.6,1.6,0,0,0-.54.39,1.8,1.8,0,0,0-.35.6,2.19,2.19,0,0,0-.13.75,2.89,2.89,0,0,0,.12.76,1.66,1.66,0,0,0,.33.6,1.52,1.52,0,0,0,.54.4,1.83,1.83,0,0,0,.75.14,1.62,1.62,0,0,0,1-.32,1.47,1.47,0,0,0,.53-.92Zm1.46,1.15h.6V41.25a2.48,2.48,0,0,1,.07-.62,1.18,1.18,0,0,1,.22-.46,1,1,0,0,1,.41-.29,1.68,1.68,0,0,1,.61-.1v-.63a1.34,1.34,0,0,0-.8.2,1.61,1.61,0,0,0-.53.65h0v-.76h-.56v3.62Zm4.47,0h.67V40.57H78v2.29h.66v-5H78V40H75.34V37.87h-.67v5Zm5.65-2.39a1.26,1.26,0,0,1,.24-.43,1,1,0,0,1,.36-.27,1.1,1.1,0,0,1,.88,0,1,1,0,0,1,.36.27,1.26,1.26,0,0,1,.24.43,2,2,0,0,1,0,1.17,1.22,1.22,0,0,1-.24.43,1,1,0,0,1-.36.26,1.1,1.1,0,0,1-.87,0,1,1,0,0,1-.36-.26,1.22,1.22,0,0,1-.24-.43,2,2,0,0,1,0-1.17Zm-.61,1.33a1.69,1.69,0,0,0,.34.6,1.59,1.59,0,0,0,.55.4,2,2,0,0,0,1.52,0,1.58,1.58,0,0,0,.55-.4,1.69,1.69,0,0,0,.34-.6,2.38,2.38,0,0,0,.11-.74,2.41,2.41,0,0,0-.11-.75,1.69,1.69,0,0,0-.34-.6,1.58,1.58,0,0,0-.55-.4,2,2,0,0,0-1.52,0,1.59,1.59,0,0,0-.55.4,1.69,1.69,0,0,0-.34.6,2.41,2.41,0,0,0-.11.75,2.38,2.38,0,0,0,.11.74Zm7.37-1.39a1.47,1.47,0,0,0-.16-.56,1.18,1.18,0,0,0-.34-.39,1.45,1.45,0,0,0-.48-.23,2.18,2.18,0,0,0-.58-.07,1.75,1.75,0,0,0-.75.15,1.51,1.51,0,0,0-.53.41,1.76,1.76,0,0,0-.32.62,2.66,2.66,0,0,0-.11.76,2.45,2.45,0,0,0,.11.75,1.65,1.65,0,0,0,.32.58,1.46,1.46,0,0,0,.53.38,1.84,1.84,0,0,0,.73.14,1.56,1.56,0,0,0,1.09-.37,1.69,1.69,0,0,0,.5-1h-.61a1,1,0,0,1-.31.65,1,1,0,0,1-.69.23,1,1,0,0,1-.49-.11,1,1,0,0,1-.32-.3,1.32,1.32,0,0,1-.19-.42,2,2,0,0,1-.06-.49,2.42,2.42,0,0,1,.06-.53,1.32,1.32,0,0,1,.19-.45A1,1,0,0,1,85,39.8a1.11,1.11,0,0,1,.54-.12.84.84,0,0,1,.9.72ZM88,42.86h.6v-2a1.48,1.48,0,0,1,.07-.45,1,1,0,0,1,.2-.36.88.88,0,0,1,.33-.24,1.22,1.22,0,0,1,.47-.08.73.73,0,0,1,.54.2.72.72,0,0,1,.2.53v2.45H91V40.48a2.22,2.22,0,0,0-.06-.54,1,1,0,0,0-.21-.42,1,1,0,0,0-.38-.27,1.57,1.57,0,0,0-.6-.1,1.67,1.67,0,0,0-.33,0,1.4,1.4,0,0,0-.32.11,1.16,1.16,0,0,0-.28.19.82.82,0,0,0-.2.28h0V37.87H88v5Zm3.84-1.14a1.3,1.3,0,0,0,.14.57,1.05,1.05,0,0,0,.34.38,1.46,1.46,0,0,0,.48.21,2.4,2.4,0,0,0,.58.07,2.8,2.8,0,0,0,.55-.06,1.56,1.56,0,0,0,.5-.19,1.05,1.05,0,0,0,.36-.35,1,1,0,0,0,.14-.54.86.86,0,0,0-.1-.43.92.92,0,0,0-.27-.29,1.44,1.44,0,0,0-.38-.18l-.44-.12-.42-.09a2.4,2.4,0,0,1-.38-.11.89.89,0,0,1-.28-.17.33.33,0,0,1-.11-.26.36.36,0,0,1,.07-.23.48.48,0,0,1,.18-.14.91.91,0,0,1,.25-.07l.27,0a1.36,1.36,0,0,1,.29,0,.85.85,0,0,1,.26.1A.65.65,0,0,1,94,40a.58.58,0,0,1,.09.29h.59a1.33,1.33,0,0,0-.14-.55.94.94,0,0,0-.32-.35,1.31,1.31,0,0,0-.46-.18,2.88,2.88,0,0,0-.56-.05,2,2,0,0,0-.48.06,1.45,1.45,0,0,0-.43.18,1,1,0,0,0-.31.32.86.86,0,0,0-.12.47.81.81,0,0,0,.37.72,1.57,1.57,0,0,0,.38.18l.43.12.44.09a2.1,2.1,0,0,1,.38.12.78.78,0,0,1,.27.18.4.4,0,0,1,.1.28.44.44,0,0,1-.08.28.53.53,0,0,1-.21.16,1.08,1.08,0,0,1-.28.08l-.29,0a1.75,1.75,0,0,1-.35,0,1,1,0,0,1-.31-.12.64.64,0,0,1-.22-.21.67.67,0,0,1-.09-.34Zm7-1.32a1.47,1.47,0,0,0-.16-.56,1.2,1.2,0,0,0-.34-.39,1.45,1.45,0,0,0-.48-.23,2.19,2.19,0,0,0-.58-.07,1.74,1.74,0,0,0-.75.15,1.49,1.49,0,0,0-.53.41,1.75,1.75,0,0,0-.32.62,2.66,2.66,0,0,0-.1.76,2.42,2.42,0,0,0,.11.75,1.62,1.62,0,0,0,.32.58,1.44,1.44,0,0,0,.53.38,1.84,1.84,0,0,0,.73.14,1.56,1.56,0,0,0,1.09-.37,1.68,1.68,0,0,0,.5-1H98.2a1,1,0,0,1-.31.65,1,1,0,0,1-.69.23,1,1,0,0,1-.49-.11,1,1,0,0,1-.33-.3,1.3,1.3,0,0,1-.19-.42,2,2,0,0,1-.06-.49,2.48,2.48,0,0,1,.06-.53,1.31,1.31,0,0,1,.19-.45,1,1,0,0,1,.35-.32,1.11,1.11,0,0,1,.54-.12.84.84,0,0,1,.9.72Zm.86,2.46h.59v-2a1.48,1.48,0,0,1,.07-.45,1,1,0,0,1,.2-.36.89.89,0,0,1,.33-.24,1.22,1.22,0,0,1,.47-.08.73.73,0,0,1,.54.2.72.72,0,0,1,.2.53v2.45h.6V40.48a2.22,2.22,0,0,0-.06-.54,1,1,0,0,0-.21-.42,1,1,0,0,0-.39-.27,1.57,1.57,0,0,0-.59-.1,1.68,1.68,0,0,0-.33,0,1.42,1.42,0,0,0-.33.11,1.16,1.16,0,0,0-.28.19.83.83,0,0,0-.2.28h0V37.87h-.59v5Zm7-3.62h-.6v2a1.45,1.45,0,0,1-.07.45,1,1,0,0,1-.2.36.89.89,0,0,1-.33.24,1.21,1.21,0,0,1-.47.08.73.73,0,0,1-.54-.2.72.72,0,0,1-.2-.53V39.24h-.6v2.38a2.28,2.28,0,0,0,.06.54,1,1,0,0,0,.21.42,1,1,0,0,0,.38.27,1.57,1.57,0,0,0,.6.1,1.42,1.42,0,0,0,.69-.16,1.23,1.23,0,0,0,.49-.5h0v.57h.56V39.24Zm1.08,3.62h.6v-5h-.6v5Zm2.13-2.16a1.24,1.24,0,0,1,.09-.4,1,1,0,0,1,.21-.33,1,1,0,0,1,.32-.22,1,1,0,0,1,1.37.54,1.23,1.23,0,0,1,.09.4Zm2.07,1a.84.84,0,0,1-.32.53,1,1,0,0,1-.62.17,1.23,1.23,0,0,1-.51-.1,1,1,0,0,1-.36-.26,1,1,0,0,1-.2-.38,1.43,1.43,0,0,1-.06-.45h2.71a2.9,2.9,0,0,0-.06-.69,2,2,0,0,0-.27-.67,1.6,1.6,0,0,0-.51-.51,1.49,1.49,0,0,0-.8-.2,1.64,1.64,0,0,0-.68.14,1.6,1.6,0,0,0-.54.39,1.8,1.8,0,0,0-.35.6,2.19,2.19,0,0,0-.13.75,2.86,2.86,0,0,0,.12.76,1.66,1.66,0,0,0,.33.6,1.52,1.52,0,0,0,.54.4,1.82,1.82,0,0,0,.75.14,1.62,1.62,0,0,0,1-.32,1.47,1.47,0,0,0,.53-.92Zm3.77-1.15a1.36,1.36,0,0,1,.18-.45,1,1,0,0,1,.33-.32,1,1,0,0,1,.51-.12,1.11,1.11,0,0,1,.52.12,1,1,0,0,1,.35.3,1.27,1.27,0,0,1,.2.44,2.11,2.11,0,0,1,0,1,1.28,1.28,0,0,1-.19.44,1,1,0,0,1-.85.43,1.07,1.07,0,0,1-.5-.11,1,1,0,0,1-.35-.3,1.35,1.35,0,0,1-.2-.43,1.86,1.86,0,0,1-.07-.49,2.4,2.4,0,0,1,.06-.52Zm2.74-2.7h-.6v1.86h0a1,1,0,0,0-.24-.27,1.37,1.37,0,0,0-.3-.17,1.53,1.53,0,0,0-.32-.09l-.3,0a1.65,1.65,0,0,0-.73.15,1.48,1.48,0,0,0-.52.41,1.77,1.77,0,0,0-.31.6,2.54,2.54,0,0,0-.1.72,2.47,2.47,0,0,0,.1.73,1.85,1.85,0,0,0,.31.61,1.5,1.5,0,0,0,.52.42,1.64,1.64,0,0,0,.73.15,1.72,1.72,0,0,0,.69-.14.89.89,0,0,0,.46-.44h0v.49h.6v-5ZM120,40.71a1.21,1.21,0,0,1,.09-.4,1,1,0,0,1,.21-.33,1,1,0,0,1,.32-.22,1,1,0,0,1,.42-.08,1,1,0,0,1,.41.08,1,1,0,0,1,.54.54,1.23,1.23,0,0,1,.1.4Zm2.07,1a.84.84,0,0,1-.32.53,1,1,0,0,1-.62.17,1.23,1.23,0,0,1-.51-.1,1,1,0,0,1-.36-.26,1,1,0,0,1-.2-.38,1.43,1.43,0,0,1-.06-.45h2.71a2.9,2.9,0,0,0-.06-.69,2,2,0,0,0-.27-.67,1.58,1.58,0,0,0-.51-.51,1.48,1.48,0,0,0-.8-.2,1.65,1.65,0,0,0-.68.14,1.62,1.62,0,0,0-.54.39,1.81,1.81,0,0,0-.35.6,2.19,2.19,0,0,0-.13.75,2.86,2.86,0,0,0,.12.76,1.66,1.66,0,0,0,.33.6,1.53,1.53,0,0,0,.54.4,1.83,1.83,0,0,0,.75.14,1.62,1.62,0,0,0,1-.32,1.47,1.47,0,0,0,.53-.92Zm1.46,1.15h.6V41.25a2.47,2.47,0,0,1,.07-.62,1.17,1.17,0,0,1,.22-.46,1,1,0,0,1,.41-.29,1.68,1.68,0,0,1,.61-.1v-.63a1.34,1.34,0,0,0-.8.2,1.61,1.61,0,0,0-.53.65h0v-.76h-.56v3.62Zm4.47,0h.66V41.11l.83-.78,1.81,2.53h.84l-2.19-3,2.11-2h-.86l-2.53,2.49V37.87H128v5Zm7.62-3.62H135v2a1.47,1.47,0,0,1-.07.45,1,1,0,0,1-.2.36.89.89,0,0,1-.33.24,1.21,1.21,0,0,1-.47.08.73.73,0,0,1-.54-.2.72.72,0,0,1-.2-.53V39.24h-.6v2.38a2.22,2.22,0,0,0,.06.54,1,1,0,0,0,.21.42,1,1,0,0,0,.39.27,1.57,1.57,0,0,0,.59.1,1.42,1.42,0,0,0,.69-.16,1.24,1.24,0,0,0,.49-.5h0v.57h.56V39.24Zm-2.48-.6h.63v-.73h-.63v.73Zm1.32,0h.63v-.73h-.63v.73Zm2.23,4.21h.6v-2a1.48,1.48,0,0,1,.07-.45,1,1,0,0,1,.2-.36.89.89,0,0,1,.33-.24,1.22,1.22,0,0,1,.47-.08.73.73,0,0,1,.54.2.72.72,0,0,1,.2.53v2.45h.59V40.48a2.22,2.22,0,0,0-.06-.54,1,1,0,0,0-.21-.42,1,1,0,0,0-.38-.27,1.57,1.57,0,0,0-.6-.1,1.43,1.43,0,0,0-.69.16,1.23,1.23,0,0,0-.49.5h0v-.57h-.56v3.62Zm3.84-1.14a1.32,1.32,0,0,0,.14.57,1.05,1.05,0,0,0,.34.38,1.46,1.46,0,0,0,.48.21,2.4,2.4,0,0,0,.58.07,2.8,2.8,0,0,0,.55-.06,1.56,1.56,0,0,0,.5-.19,1.05,1.05,0,0,0,.36-.35,1,1,0,0,0,.14-.54.86.86,0,0,0-.1-.43.92.92,0,0,0-.27-.29,1.44,1.44,0,0,0-.38-.18l-.44-.12-.42-.09a2.4,2.4,0,0,1-.38-.11.89.89,0,0,1-.28-.17.33.33,0,0,1-.11-.26.36.36,0,0,1,.07-.23.49.49,0,0,1,.18-.14.91.91,0,0,1,.25-.07l.27,0a1.36,1.36,0,0,1,.29,0,.85.85,0,0,1,.26.1.65.65,0,0,1,.2.19.58.58,0,0,1,.09.29h.6a1.32,1.32,0,0,0-.14-.55.94.94,0,0,0-.32-.35,1.31,1.31,0,0,0-.46-.18,2.88,2.88,0,0,0-.56-.05,2,2,0,0,0-.48.06,1.45,1.45,0,0,0-.43.18,1,1,0,0,0-.32.32.86.86,0,0,0-.12.47.81.81,0,0,0,.37.72,1.57,1.57,0,0,0,.38.18l.43.12.44.09a2.1,2.1,0,0,1,.38.12.78.78,0,0,1,.27.18.4.4,0,0,1,.1.28.44.44,0,0,1-.08.28.53.53,0,0,1-.21.16,1.08,1.08,0,0,1-.28.08l-.29,0a1.75,1.75,0,0,1-.35,0,1,1,0,0,1-.31-.12.64.64,0,0,1-.22-.21.67.67,0,0,1-.09-.34Zm4.73-3.56h-.6v1.08H144v.52h.62v2.3a1.4,1.4,0,0,0,0,.41.49.49,0,0,0,.15.24.58.58,0,0,0,.27.12,2.13,2.13,0,0,0,.39,0H146v-.52h-.5a.29.29,0,0,1-.14,0,.17.17,0,0,1-.07-.1.63.63,0,0,1,0-.17V39.77H146v-.52h-.72V38.16Zm1.87,2.55a1.27,1.27,0,0,1,.09-.4,1.08,1.08,0,0,1,.21-.33,1,1,0,0,1,.32-.22,1,1,0,0,1,1.36.54,1.23,1.23,0,0,1,.09.4Zm2.07,1a.84.84,0,0,1-.32.53,1,1,0,0,1-.62.17,1.23,1.23,0,0,1-.51-.1,1,1,0,0,1-.36-.26,1,1,0,0,1-.2-.38,1.46,1.46,0,0,1-.06-.45h2.71a2.85,2.85,0,0,0-.06-.69,2,2,0,0,0-.27-.67,1.6,1.6,0,0,0-.51-.51,1.49,1.49,0,0,0-.8-.2,1.64,1.64,0,0,0-.68.14,1.6,1.6,0,0,0-.54.39,1.8,1.8,0,0,0-.35.6,2.19,2.19,0,0,0-.13.75,2.9,2.9,0,0,0,.12.76,1.67,1.67,0,0,0,.33.6,1.52,1.52,0,0,0,.54.4,1.83,1.83,0,0,0,.75.14,1.62,1.62,0,0,0,1-.32,1.47,1.47,0,0,0,.53-.92Z"/><path class="cls-1" d="M0,23.25H15.31V18.86H6.89l8-8.9V6.11H.46V10.5H8L0,19.12v4.13Zm69.61,0H71V18.58a3.35,3.35,0,0,1,.15-1,2.34,2.34,0,0,1,.46-.82,2,2,0,0,1,.76-.54A2.77,2.77,0,0,1,73.42,16a1.67,1.67,0,0,1,1.23.45,1.64,1.64,0,0,1,.45,1.22v5.6h1.36V17.81a5.13,5.13,0,0,0-.14-1.22,2.32,2.32,0,0,0-.47-1A2.24,2.24,0,0,0,75,15a3.59,3.59,0,0,0-1.36-.22,3.8,3.8,0,0,0-.76.08,3.21,3.21,0,0,0-.74.25,2.62,2.62,0,0,0-.65.44,1.87,1.87,0,0,0-.46.64h0V11.82H69.61V23.25ZM79.75,18a3.13,3.13,0,0,1,.42-1,2.19,2.19,0,0,1,.76-.72A2.33,2.33,0,0,1,82.1,16a2.53,2.53,0,0,1,1.2.26,2.34,2.34,0,0,1,.81.7,2.91,2.91,0,0,1,.46,1,4.77,4.77,0,0,1,.14,1.18,4.83,4.83,0,0,1-.14,1.14,3,3,0,0,1-.44,1,2.25,2.25,0,0,1-2,1A2.43,2.43,0,0,1,81,22a2.27,2.27,0,0,1-.8-.69,3,3,0,0,1-.46-1,4.22,4.22,0,0,1-.15-1.13A5.43,5.43,0,0,1,79.75,18ZM86,11.82H84.66v4.26h0a2.22,2.22,0,0,0-.55-.62,3.16,3.16,0,0,0-.7-.4,3.52,3.52,0,0,0-.74-.22,4,4,0,0,0-.69-.06,3.77,3.77,0,0,0-1.66.34,3.36,3.36,0,0,0-1.18.94,4,4,0,0,0-.7,1.37,5.75,5.75,0,0,0-.23,1.66,5.65,5.65,0,0,0,.24,1.66,4.2,4.2,0,0,0,.71,1.38,3.4,3.4,0,0,0,1.18,1,3.73,3.73,0,0,0,1.67.35,3.94,3.94,0,0,0,1.58-.31,2,2,0,0,0,1.06-1h0v1.12H86V11.82Zm2.21,11.42H89.6V20.11l1.28-1.18,2.83,4.32h1.73L91.92,18l3.28-3H93.38L89.6,18.59V11.82H88.24V23.25Z"/></g></g></svg>