<svg xmlns="http://www.w3.org/2000/svg" xmlns:xlink="http://www.w3.org/1999/xlink" width="171.579" height="69.644" viewBox="0 0 171.579 69.644">
  <defs>
    <clipPath id="clip-path">
      <rect id="Rectangle_23" data-name="Rectangle 23" width="171.579" height="69.644" transform="translate(0 0.001)" fill="none"/>
    </clipPath>
  </defs>
  <g id="Group_8" data-name="Group 8" transform="translate(0 0)">
    <g id="Group_7" data-name="Group 7" clip-path="url(#clip-path)">
      <path id="Path_150" data-name="Path 150" d="M30.164,6.787a2.063,2.063,0,0,0,1.155.308A1.045,1.045,0,0,0,32.5,6.022c0-1.028-2.4-1.156-2.4-2.529a1.475,1.475,0,0,1,1.659-1.366,3.131,3.131,0,0,1,1.028.173l-.083.473a2.125,2.125,0,0,0-.953-.195c-.54,0-1.133.225-1.133.9,0,1.051,2.4,1.058,2.4,2.589A1.536,1.536,0,0,1,31.3,7.545a3,3,0,0,1-1.186-.225Z" fill="#fff"/>
      <path id="Path_151" data-name="Path 151" d="M37.082,4.138a2.178,2.178,0,0,0-.818-.195,1.425,1.425,0,0,0-1.441,1.6,1.451,1.451,0,0,0,1.388,1.6,2.464,2.464,0,0,0,.864-.173l.045.443a2.85,2.85,0,0,1-.983.135,1.814,1.814,0,0,1-1.831-2,1.854,1.854,0,0,1,1.891-2,2.872,2.872,0,0,1,.923.15Z" fill="#fff"/>
      <path id="Path_152" data-name="Path 152" d="M38.508,1.827h.473V4.273H39a1.3,1.3,0,0,1,1.193-.735c1.028,0,1.305.683,1.305,1.628V7.455h-.472V5.174c0-.66-.128-1.231-.908-1.231-.84,0-1.133.8-1.133,1.464V7.455h-.473Z" fill="#fff"/>
      <path id="Path_153" data-name="Path 153" d="M47.2,7.455h-.57L45.585,4.146H45.57L44.527,7.455h-.571l-1.23-3.827h.517l1.006,3.309h.015l1.065-3.309H45.9l1.013,3.309h.015l1.058-3.309h.472Z" fill="#fff"/>
      <path id="Path_154" data-name="Path 154" d="M52.255,7.335a3.137,3.137,0,0,1-1.111.209c-1.268,0-1.741-.855-1.741-2,0-1.17.646-2,1.614-2,1.08,0,1.523.87,1.523,1.9v.24H49.921A1.293,1.293,0,0,0,51.182,7.14a2.47,2.47,0,0,0,1.073-.285Zm-.233-2.064c0-.668-.27-1.328-.975-1.328a1.251,1.251,0,0,0-1.126,1.328Z" fill="#fff"/>
      <path id="Path_155" data-name="Path 155" d="M54.5,2.606h-.473V1.977H54.5Zm-.472,1.022H54.5V7.455h-.473Z" fill="#fff"/>
      <path id="Path_156" data-name="Path 156" d="M55.925,7.057l2.3-3.024H56.015V3.627h2.761v.406l-2.3,3.016h2.3v.4H55.925Z" fill="#fff"/>
      <path id="Path_157" data-name="Path 157" d="M62.76,7.335a3.137,3.137,0,0,1-1.111.209c-1.268,0-1.741-.855-1.741-2,0-1.17.646-2,1.614-2,1.08,0,1.523.87,1.523,1.9v.24H60.426A1.294,1.294,0,0,0,61.687,7.14a2.469,2.469,0,0,0,1.073-.285Zm-.233-2.064c0-.668-.27-1.328-.975-1.328a1.251,1.251,0,0,0-1.126,1.328Z" fill="#fff"/>
      <path id="Path_158" data-name="Path 158" d="M64.531,4.483a6.871,6.871,0,0,0-.03-.855h.473v.735h.015a1.134,1.134,0,0,1,.983-.825,1.378,1.378,0,0,1,.33.045v.5a1.242,1.242,0,0,0-.345-.045c-.751,0-.953.841-.953,1.531V7.455h-.473Z" fill="#fff"/>
      <path id="Path_159" data-name="Path 159" d="M68.088,2.606h-.473V1.977h.473Zm-.473,1.022h.473V7.455h-.473Z" fill="#fff"/>
      <path id="Path_160" data-name="Path 160" d="M69.574,6.9a2.244,2.244,0,0,0,1,.24c.45,0,.848-.248.848-.683,0-.908-1.839-.765-1.839-1.876,0-.758.616-1.043,1.246-1.043a3,3,0,0,1,.945.173l-.045.413a2.222,2.222,0,0,0-.847-.181c-.488,0-.826.15-.826.638,0,.713,1.883.623,1.883,1.876,0,.811-.758,1.088-1.335,1.088a2.88,2.88,0,0,1-1.073-.18Z" fill="#fff"/>
      <path id="Path_161" data-name="Path 161" d="M75.861,4.138a2.178,2.178,0,0,0-.818-.195,1.425,1.425,0,0,0-1.441,1.6,1.451,1.451,0,0,0,1.388,1.6,2.459,2.459,0,0,0,.864-.173l.045.443a2.85,2.85,0,0,1-.983.135,1.814,1.814,0,0,1-1.831-2,1.854,1.854,0,0,1,1.891-2,2.872,2.872,0,0,1,.923.15Z" fill="#fff"/>
      <path id="Path_162" data-name="Path 162" d="M77.287,1.827h.473V4.273h.015a1.3,1.3,0,0,1,1.193-.735c1.028,0,1.305.683,1.305,1.628V7.455H79.8V5.174c0-.66-.128-1.231-.908-1.231-.84,0-1.133.8-1.133,1.464V7.455h-.473Z" fill="#fff"/>
      <path id="Path_163" data-name="Path 163" d="M84.611,7.335a3.137,3.137,0,0,1-1.111.209c-1.268,0-1.741-.855-1.741-2,0-1.17.646-2,1.614-2,1.08,0,1.523.87,1.523,1.9v.24H82.277A1.294,1.294,0,0,0,83.538,7.14a2.469,2.469,0,0,0,1.073-.285Zm-.233-2.064c0-.668-.27-1.328-.975-1.328a1.251,1.251,0,0,0-1.126,1.328Z" fill="#fff"/>
      <path id="Path_164" data-name="Path 164" d="M88.88,2.217h2.566v.45H89.4V4.536h1.944v.45H89.4V7h2.139v.45H88.88Z" fill="#fff"/>
      <path id="Path_165" data-name="Path 165" d="M93.638,2.606h-.473V1.977h.473Zm-.473,1.022h.473V7.455h-.473Z" fill="#fff"/>
      <path id="Path_166" data-name="Path 166" d="M98.448,7.455h-.473V6.847H97.96a1.226,1.226,0,0,1-1.193.7c-1.051,0-1.576-.87-1.576-2,0-1.163.45-2,1.576-2a1.291,1.291,0,0,1,1.193.735h.015V1.827h.473ZM96.842,7.14c.84,0,1.133-.9,1.133-1.6s-.293-1.6-1.133-1.6c-.9,0-1.133.856-1.133,1.6s.233,1.6,1.133,1.6" fill="#fff"/>
      <path id="Path_167" data-name="Path 167" d="M103.205,7.139c0,1.066-.48,1.936-1.793,1.936a3.966,3.966,0,0,1-1.156-.2l.038-.472a2.592,2.592,0,0,0,1.125.27c1.216,0,1.321-.886,1.321-1.966h-.015a1.186,1.186,0,0,1-1.163.75c-1.223,0-1.614-1.065-1.614-1.913,0-1.163.451-2,1.576-2a1.264,1.264,0,0,1,1.193.526h.015V3.627h.473Zm-1.636-.09c.855,0,1.163-.811,1.163-1.508,0-.923-.27-1.6-1.133-1.6-.9,0-1.133.856-1.133,1.6s.3,1.508,1.1,1.508" fill="#fff"/>
      <path id="Path_168" data-name="Path 168" d="M107.5,7.335a3.137,3.137,0,0,1-1.111.209c-1.268,0-1.741-.855-1.741-2,0-1.17.646-2,1.614-2,1.08,0,1.523.87,1.523,1.9v.24h-2.619a1.294,1.294,0,0,0,1.261,1.464,2.47,2.47,0,0,0,1.073-.285Zm-.233-2.064c0-.668-.27-1.328-.975-1.328a1.251,1.251,0,0,0-1.126,1.328Z" fill="#fff"/>
      <path id="Path_169" data-name="Path 169" d="M109.268,4.528c0-.293,0-.593-.03-.9h.458V4.31h.015a1.213,1.213,0,0,1,1.238-.773c.946,0,1.305.631,1.305,1.471V7.454h-.472V5.128c0-.72-.255-1.186-.908-1.186-.863,0-1.133.758-1.133,1.4V7.454h-.473Z" fill="#fff"/>
      <path id="Path_170" data-name="Path 170" d="M115.518,3.538a1.787,1.787,0,0,1,1.786,2,1.8,1.8,0,1,1-3.572,0,1.787,1.787,0,0,1,1.786-2m0,3.6c.826,0,1.268-.713,1.268-1.6s-.442-1.6-1.268-1.6-1.268.713-1.268,1.6.443,1.6,1.268,1.6" fill="#fff"/>
      <path id="Path_171" data-name="Path 171" d="M118.49,6.9a2.244,2.244,0,0,0,1,.24c.45,0,.848-.248.848-.683,0-.908-1.839-.765-1.839-1.876,0-.758.616-1.043,1.246-1.043a3,3,0,0,1,.945.173l-.045.413a2.222,2.222,0,0,0-.847-.181c-.488,0-.826.15-.826.638,0,.713,1.884.623,1.884,1.876,0,.811-.759,1.088-1.336,1.088a2.883,2.883,0,0,1-1.073-.18Z" fill="#fff"/>
      <path id="Path_172" data-name="Path 172" d="M121.994,6.9a2.244,2.244,0,0,0,1,.24c.45,0,.848-.248.848-.683,0-.908-1.839-.765-1.839-1.876,0-.758.616-1.043,1.246-1.043a3,3,0,0,1,.945.173l-.045.413a2.222,2.222,0,0,0-.847-.181c-.488,0-.826.15-.826.638,0,.713,1.884.623,1.884,1.876,0,.811-.759,1.088-1.336,1.088a2.883,2.883,0,0,1-1.073-.18Z" fill="#fff"/>
      <path id="Path_173" data-name="Path 173" d="M128.357,7.335a3.137,3.137,0,0,1-1.111.209c-1.268,0-1.741-.855-1.741-2,0-1.17.646-2,1.614-2,1.08,0,1.523.87,1.523,1.9v.24h-2.619a1.294,1.294,0,0,0,1.261,1.464,2.469,2.469,0,0,0,1.073-.285Zm-.233-2.064c0-.668-.27-1.328-.975-1.328a1.251,1.251,0,0,0-1.126,1.328Z" fill="#fff"/>
      <path id="Path_174" data-name="Path 174" d="M130.128,4.528c0-.293,0-.593-.03-.9h.458V4.31h.015a1.213,1.213,0,0,1,1.238-.773c.946,0,1.3.631,1.3,1.471V7.454h-.472V5.128c0-.72-.255-1.186-.908-1.186-.863,0-1.133.758-1.133,1.4V7.454h-.473Z" fill="#fff"/>
      <path id="Path_175" data-name="Path 175" d="M134.593,6.9a2.244,2.244,0,0,0,1,.24c.45,0,.848-.248.848-.683,0-.908-1.839-.765-1.839-1.876,0-.758.615-1.043,1.246-1.043a3,3,0,0,1,.945.173l-.045.413a2.222,2.222,0,0,0-.847-.181c-.488,0-.826.15-.826.638,0,.713,1.884.623,1.884,1.876,0,.811-.759,1.088-1.336,1.088a2.888,2.888,0,0,1-1.074-.18Z" fill="#fff"/>
      <path id="Path_176" data-name="Path 176" d="M140.881,4.138a2.178,2.178,0,0,0-.818-.195,1.425,1.425,0,0,0-1.441,1.6,1.451,1.451,0,0,0,1.388,1.6,2.459,2.459,0,0,0,.864-.173l.045.443a2.85,2.85,0,0,1-.983.135,1.814,1.814,0,0,1-1.831-2,1.855,1.855,0,0,1,1.891-2,2.872,2.872,0,0,1,.923.15Z" fill="#fff"/>
      <path id="Path_177" data-name="Path 177" d="M142.307,1.827h.473V4.273h.015a1.3,1.3,0,0,1,1.193-.735c1.026,0,1.306.683,1.306,1.628V7.455h-.474V5.174c0-.66-.127-1.231-.907-1.231-.84,0-1.133.8-1.133,1.464V7.455h-.473Z" fill="#fff"/>
      <path id="Path_178" data-name="Path 178" d="M149.262,6.839h-.015a1.347,1.347,0,0,1-1.216.706c-1.087,0-1.26-.736-1.26-1.081,0-1.283,1.366-1.343,2.356-1.343h.09V4.926c0-.653-.232-.983-.87-.983a2.034,2.034,0,0,0-1.126.315V3.8a3.028,3.028,0,0,1,1.126-.262c.945,0,1.343.427,1.343,1.426V6.652a5.374,5.374,0,0,0,.038.8h-.466Zm-.045-1.313h-.135c-.818,0-1.793.083-1.793.923,0,.5.36.691.795.691,1.111,0,1.133-.968,1.133-1.381Z" fill="#fff"/>
      <path id="Path_179" data-name="Path 179" d="M151.723,4.033h-.772v-.4h.772V3.35c0-.8.03-1.613,1.014-1.613a1.1,1.1,0,0,1,.442.075l-.03.413a.832.832,0,0,0-.375-.083c-.646,0-.578.7-.578,1.156v.33h.863v.4H152.2V7.455h-.473Z" fill="#fff"/>
      <path id="Path_180" data-name="Path 180" d="M156.135,4.033h-.87V6.51c0,.345.128.63.511.63a1.1,1.1,0,0,0,.434-.09l.03.39a1.718,1.718,0,0,1-.578.105c-.839,0-.87-.578-.87-1.276V4.033h-.75v-.4h.75V2.7l.473-.165V3.628h.87Z" fill="#fff"/>
      <path id="Path_181" data-name="Path 181" d="M33.841,13.152a2.725,2.725,0,0,0-1.171-.225,2.057,2.057,0,0,0-2.123,2.259,2.035,2.035,0,0,0,2.123,2.258,2.593,2.593,0,0,0,1.171-.225l.03.45a2.821,2.821,0,0,1-1.2.225,2.5,2.5,0,0,1-2.641-2.708,2.526,2.526,0,0,1,2.641-2.709,3.4,3.4,0,0,1,1.2.195Z" fill="#fff"/>
      <path id="Path_182" data-name="Path 182" d="M37.09,13.888a1.787,1.787,0,0,1,1.786,2,1.8,1.8,0,1,1-3.572,0,1.787,1.787,0,0,1,1.786-2m0,3.6c.826,0,1.268-.713,1.268-1.6s-.442-1.6-1.268-1.6-1.268.713-1.268,1.6.443,1.6,1.268,1.6" fill="#fff"/>
      <path id="Path_183" data-name="Path 183" d="M40.354,14.878c0-.293,0-.593-.03-.9h.458v.683H40.8a1.213,1.213,0,0,1,1.238-.773c.945,0,1.305.631,1.305,1.471V17.8h-.472V15.478c0-.72-.255-1.185-.908-1.185-.863,0-1.133.757-1.133,1.395V17.8h-.473Z" fill="#fff"/>
      <path id="Path_184" data-name="Path 184" d="M45.435,14.383h-.773v-.405h.773V13.7c0-.8.03-1.613,1.013-1.613a1.1,1.1,0,0,1,.442.075l-.029.413a.837.837,0,0,0-.376-.083c-.645,0-.577.7-.577,1.156v.33h.862v.405h-.862v3.422h-.473Z" fill="#fff"/>
      <path id="Path_185" data-name="Path 185" d="M50.762,17.685a3.155,3.155,0,0,1-1.11.21c-1.268,0-1.741-.855-1.741-2,0-1.17.645-2,1.613-2,1.081,0,1.524.87,1.524,1.9v.241h-2.62a1.294,1.294,0,0,0,1.261,1.463,2.456,2.456,0,0,0,1.073-.286Zm-.232-2.063c0-.669-.27-1.33-.975-1.33a1.253,1.253,0,0,0-1.127,1.33ZM49.742,12.5h.593l-.946,1.081h-.345Z" fill="#fff"/>
      <path id="Path_186" data-name="Path 186" d="M55.564,17.805h-.473V17.2h-.015a1.226,1.226,0,0,1-1.193.7c-1.051,0-1.576-.87-1.576-2,0-1.163.45-2,1.576-2a1.291,1.291,0,0,1,1.193.735h.015V12.177h.473Zm-1.606-.315c.84,0,1.133-.9,1.133-1.6s-.293-1.6-1.133-1.6c-.9,0-1.133.856-1.133,1.6s.233,1.6,1.133,1.6" fill="#fff"/>
      <path id="Path_187" data-name="Path 187" d="M59.857,17.685a3.16,3.16,0,0,1-1.111.21c-1.268,0-1.741-.855-1.741-2,0-1.17.645-2,1.613-2,1.081,0,1.524.87,1.524,1.9v.241H57.523a1.293,1.293,0,0,0,1.26,1.463,2.464,2.464,0,0,0,1.074-.286Zm-.233-2.063c0-.669-.27-1.33-.975-1.33a1.252,1.252,0,0,0-1.126,1.33ZM58.836,12.5h.593l-.946,1.081h-.345Z" fill="#fff"/>
      <path id="Path_188" data-name="Path 188" d="M61.627,14.833a6.9,6.9,0,0,0-.03-.856h.473v.736h.015a1.134,1.134,0,0,1,.983-.825,1.385,1.385,0,0,1,.33.045v.5a1.242,1.242,0,0,0-.345-.045c-.751,0-.953.84-.953,1.531v1.891h-.473Z" fill="#fff"/>
      <path id="Path_189" data-name="Path 189" d="M66.91,17.189h-.015a1.346,1.346,0,0,1-1.216.7c-1.088,0-1.26-.735-1.26-1.081,0-1.282,1.366-1.342,2.356-1.342h.09v-.2c0-.652-.233-.982-.871-.982a2.032,2.032,0,0,0-1.125.314V14.15a3,3,0,0,1,1.125-.263c.946,0,1.344.428,1.344,1.426V17a5.5,5.5,0,0,0,.037.8H66.91Zm-.045-1.313H66.73c-.818,0-1.794.083-1.794.923,0,.5.361.69.8.69,1.11,0,1.133-.968,1.133-1.381Z" fill="#fff"/>
      <path id="Path_190" data-name="Path 190" d="M70.7,14.383h-.871V16.86c0,.345.128.63.511.63a1.1,1.1,0,0,0,.435-.09l.03.39a1.723,1.723,0,0,1-.578.1c-.84,0-.87-.578-.87-1.276V14.383h-.751v-.405h.751v-.923l.472-.165v1.088H70.7Z" fill="#fff"/>
      <path id="Path_191" data-name="Path 191" d="M72.605,12.957h-.473v-.631h.473Zm-.473,1.021h.473v3.827h-.473Z" fill="#fff"/>
      <path id="Path_192" data-name="Path 192" d="M75.876,13.888a1.787,1.787,0,0,1,1.786,2,1.8,1.8,0,1,1-3.572,0,1.787,1.787,0,0,1,1.786-2m0,3.6c.826,0,1.268-.713,1.268-1.6s-.442-1.6-1.268-1.6-1.268.713-1.268,1.6.443,1.6,1.268,1.6" fill="#fff"/>
      <path id="Path_193" data-name="Path 193" d="M79.141,14.878c0-.293,0-.593-.03-.9h.458v.683h.015a1.213,1.213,0,0,1,1.238-.773c.945,0,1.305.631,1.305,1.471V17.8h-.472V15.478c0-.72-.255-1.185-.908-1.185-.864,0-1.133.757-1.133,1.395V17.8h-.473Z" fill="#fff"/>
      <path id="Path_194" data-name="Path 194" d="M86.2,17.25a2.244,2.244,0,0,0,1,.24c.45,0,.848-.248.848-.684,0-.908-1.839-.764-1.839-1.875,0-.758.616-1.043,1.246-1.043a2.97,2.97,0,0,1,.945.173l-.045.412a2.241,2.241,0,0,0-.847-.181c-.488,0-.826.151-.826.639,0,.713,1.884.623,1.884,1.875,0,.812-.759,1.089-1.336,1.089a2.9,2.9,0,0,1-1.073-.18Z" fill="#fff"/>
      <path id="Path_195" data-name="Path 195" d="M92.985,16.9c0,.292,0,.593.03.9h-.458v-.682h-.014a1.216,1.216,0,0,1-1.239.772c-.945,0-1.305-.63-1.305-1.47V13.977h.472V16.3c0,.721.256,1.186.909,1.186.862,0,1.132-.758,1.132-1.4V13.977h.473Z" fill="#fff"/>
      <path id="Path_196" data-name="Path 196" d="M95.228,12.957h-.473v-.631h.473Zm-.472,1.021h.473v3.827h-.473Z" fill="#fff"/>
      <path id="Path_197" data-name="Path 197" d="M96.714,17.25a2.244,2.244,0,0,0,1,.24c.45,0,.848-.248.848-.684,0-.908-1.839-.764-1.839-1.875,0-.758.616-1.043,1.246-1.043a2.97,2.97,0,0,1,.945.173l-.045.412a2.241,2.241,0,0,0-.847-.181c-.488,0-.826.151-.826.639,0,.713,1.883.623,1.883,1.875,0,.812-.758,1.089-1.335,1.089a2.9,2.9,0,0,1-1.073-.18Z" fill="#fff"/>
      <path id="Path_198" data-name="Path 198" d="M100.219,17.25a2.244,2.244,0,0,0,1,.24c.45,0,.848-.248.848-.684,0-.908-1.839-.764-1.839-1.875,0-.758.616-1.043,1.246-1.043a2.97,2.97,0,0,1,.945.173l-.045.412a2.241,2.241,0,0,0-.847-.181c-.488,0-.826.151-.826.639,0,.713,1.884.623,1.884,1.875,0,.812-.759,1.089-1.336,1.089a2.9,2.9,0,0,1-1.073-.18Z" fill="#fff"/>
      <path id="Path_199" data-name="Path 199" d="M106.582,17.684a3.116,3.116,0,0,1-1.111.21c-1.269,0-1.742-.855-1.742-2,0-1.17.647-2,1.615-2,1.08,0,1.523.87,1.523,1.9v.24h-2.619a1.293,1.293,0,0,0,1.261,1.464,2.456,2.456,0,0,0,1.073-.286Zm-.233-2.063c0-.668-.27-1.328-.975-1.328a1.251,1.251,0,0,0-1.126,1.328Z" fill="#fff"/>
      <path id="Path_200" data-name="Path 200" d="M33.841,23.5a2.725,2.725,0,0,0-1.171-.225,2.057,2.057,0,0,0-2.123,2.259,2.035,2.035,0,0,0,2.123,2.258,2.593,2.593,0,0,0,1.171-.225l.03.45a2.821,2.821,0,0,1-1.2.225,2.5,2.5,0,0,1-2.641-2.708,2.526,2.526,0,0,1,2.641-2.709,3.379,3.379,0,0,1,1.2.195Z" fill="#fff"/>
      <path id="Path_201" data-name="Path 201" d="M37.09,24.238a1.787,1.787,0,0,1,1.786,2,1.8,1.8,0,1,1-3.572,0,1.787,1.787,0,0,1,1.786-2m0,3.6c.826,0,1.268-.713,1.268-1.6s-.442-1.6-1.268-1.6-1.268.713-1.268,1.6.443,1.6,1.268,1.6" fill="#fff"/>
      <path id="Path_202" data-name="Path 202" d="M40.354,25.229c0-.293,0-.593-.03-.9h.458v.684H40.8a1.213,1.213,0,0,1,1.238-.774c.945,0,1.305.631,1.305,1.471v2.446h-.472V25.828c0-.719-.255-1.184-.908-1.184-.863,0-1.133.757-1.133,1.4v2.115h-.473Z" fill="#fff"/>
      <path id="Path_203" data-name="Path 203" d="M45.435,24.733h-.773v-.405h.773V24.05c0-.8.03-1.613,1.013-1.613a1.1,1.1,0,0,1,.442.075l-.029.413a.837.837,0,0,0-.376-.083c-.645,0-.577.7-.577,1.156v.33h.862v.405h-.862v3.422h-.473Z" fill="#fff"/>
      <path id="Path_204" data-name="Path 204" d="M50.762,28.034a3.116,3.116,0,0,1-1.111.21c-1.268,0-1.741-.855-1.741-2,0-1.17.646-2,1.614-2,1.08,0,1.523.87,1.523,1.9v.24H48.428a1.294,1.294,0,0,0,1.261,1.464,2.456,2.456,0,0,0,1.073-.286Zm-.233-2.063c0-.668-.27-1.328-.975-1.328a1.251,1.251,0,0,0-1.126,1.328Z" fill="#fff"/>
      <path id="Path_205" data-name="Path 205" d="M55.564,28.155h-.473v-.608h-.015a1.226,1.226,0,0,1-1.193.7c-1.051,0-1.576-.87-1.576-2,0-1.163.45-2,1.576-2a1.291,1.291,0,0,1,1.193.735h.015V22.527h.473Zm-1.606-.315c.84,0,1.133-.9,1.133-1.6s-.293-1.6-1.133-1.6c-.9,0-1.133.856-1.133,1.6s.233,1.6,1.133,1.6" fill="#fff"/>
      <path id="Path_206" data-name="Path 206" d="M59.856,28.034a3.116,3.116,0,0,1-1.111.21c-1.268,0-1.741-.855-1.741-2,0-1.17.646-2,1.614-2,1.08,0,1.523.87,1.523,1.9v.24H57.522a1.294,1.294,0,0,0,1.261,1.464,2.456,2.456,0,0,0,1.073-.286Zm-.233-2.063c0-.668-.27-1.328-.975-1.328a1.251,1.251,0,0,0-1.126,1.328Z" fill="#fff"/>
      <path id="Path_207" data-name="Path 207" d="M61.627,25.183a6.9,6.9,0,0,0-.03-.856h.473v.736h.015a1.134,1.134,0,0,1,.983-.825,1.385,1.385,0,0,1,.33.045v.495a1.242,1.242,0,0,0-.345-.045c-.751,0-.953.841-.953,1.531v1.891h-.473Z" fill="#fff"/>
      <path id="Path_208" data-name="Path 208" d="M66.91,27.539h-.015a1.346,1.346,0,0,1-1.216.7c-1.088,0-1.26-.735-1.26-1.08,0-1.283,1.366-1.343,2.356-1.343h.09v-.195c0-.653-.233-.983-.871-.983a2.033,2.033,0,0,0-1.125.315V24.5a3.023,3.023,0,0,1,1.125-.262c.946,0,1.344.427,1.344,1.425v1.689a5.523,5.523,0,0,0,.037.8H66.91Zm-.045-1.313H66.73c-.818,0-1.794.083-1.794.923,0,.5.361.691.8.691,1.11,0,1.133-.969,1.133-1.381Z" fill="#fff"/>
      <path id="Path_209" data-name="Path 209" d="M68.7,27.757,71,24.733H68.786v-.406h2.761v.406l-2.3,3.016h2.3v.406H68.7Z" fill="#fff"/>
      <path id="Path_210" data-name="Path 210" d="M73.438,23.307h-.473v-.63h.473Zm-.473,1.02h.473v3.827h-.473Z" fill="#fff"/>
      <path id="Path_211" data-name="Path 211" d="M76.709,24.238a1.787,1.787,0,0,1,1.786,2,1.8,1.8,0,1,1-3.572,0,1.787,1.787,0,0,1,1.786-2m0,3.6c.826,0,1.268-.713,1.268-1.6s-.442-1.6-1.268-1.6-1.268.713-1.268,1.6.443,1.6,1.268,1.6" fill="#fff"/>
      <path id="Path_212" data-name="Path 212" d="M79.974,25.229c0-.293,0-.593-.03-.9H80.4v.684h.015a1.213,1.213,0,0,1,1.238-.774c.945,0,1.305.631,1.305,1.471v2.446h-.472V25.828c0-.719-.255-1.184-.908-1.184-.864,0-1.133.757-1.133,1.4v2.115h-.473Z" fill="#fff"/>
      <path id="Path_213" data-name="Path 213" d="M87.3,28.034a3.116,3.116,0,0,1-1.111.21c-1.268,0-1.741-.855-1.741-2,0-1.17.646-2,1.614-2,1.08,0,1.523.87,1.523,1.9v.24H84.963a1.294,1.294,0,0,0,1.261,1.464,2.456,2.456,0,0,0,1.073-.286Zm-.233-2.063c0-.668-.27-1.328-.975-1.328a1.251,1.251,0,0,0-1.126,1.328Z" fill="#fff"/>
      <path id="Path_214" data-name="Path 214" d="M91.575,27.487a2.061,2.061,0,0,0,1.155.308,1.045,1.045,0,0,0,1.178-1.073c0-1.029-2.4-1.156-2.4-2.529a1.474,1.474,0,0,1,1.659-1.366A3.131,3.131,0,0,1,94.194,23l-.083.473a2.125,2.125,0,0,0-.953-.2c-.54,0-1.133.226-1.133.9,0,1.051,2.4,1.058,2.4,2.589a1.536,1.536,0,0,1-1.718,1.478,2.993,2.993,0,0,1-1.186-.225Z" fill="#fff"/>
      <path id="Path_215" data-name="Path 215" d="M97.329,28.155h-.555l-1.3-3.827h.518l1.059,3.309h.014l1.111-3.309h.5Z" fill="#fff"/>
      <path id="Path_216" data-name="Path 216" d="M100.391,23.307h-.473v-.63h.473Zm-.473,1.02h.473v3.827h-.473Z" fill="#fff"/>
      <path id="Path_217" data-name="Path 217" d="M101.817,27.757l2.3-3.024h-2.214v-.406h2.761v.406l-2.3,3.016h2.3v.406h-2.851Z" fill="#fff"/>
      <path id="Path_218" data-name="Path 218" d="M105.734,27.757l2.3-3.024h-2.214v-.406h2.761v.406l-2.3,3.016h2.3v.406h-2.851Z" fill="#fff"/>
      <path id="Path_219" data-name="Path 219" d="M112.569,28.034a3.116,3.116,0,0,1-1.111.21c-1.268,0-1.741-.855-1.741-2,0-1.17.646-2,1.614-2,1.08,0,1.523.87,1.523,1.9v.24h-2.619A1.294,1.294,0,0,0,111.5,27.84a2.456,2.456,0,0,0,1.073-.286Zm-.233-2.063c0-.668-.27-1.328-.975-1.328a1.251,1.251,0,0,0-1.126,1.328Z" fill="#fff"/>
      <path id="Path_220" data-name="Path 220" d="M114.34,25.183a6.9,6.9,0,0,0-.03-.856h.473v.736h.014a1.137,1.137,0,0,1,.984-.825,1.385,1.385,0,0,1,.33.045v.495a1.242,1.242,0,0,0-.345-.045c-.751,0-.953.841-.953,1.531v1.891h-.473Z" fill="#fff"/>
      <path id="Path_221" data-name="Path 221" d="M119.623,27.539h-.015a1.346,1.346,0,0,1-1.216.7c-1.088,0-1.26-.735-1.26-1.08,0-1.283,1.365-1.343,2.356-1.343h.09v-.195c0-.653-.233-.983-.871-.983a2.033,2.033,0,0,0-1.125.315V24.5a3.023,3.023,0,0,1,1.125-.262c.946,0,1.344.427,1.344,1.425v1.689a5.524,5.524,0,0,0,.037.8h-.465Zm-.045-1.313h-.135c-.818,0-1.794.083-1.794.923,0,.5.361.691.8.691,1.11,0,1.133-.969,1.133-1.381Z" fill="#fff"/>
      <path id="Path_222" data-name="Path 222" d="M33.841,33.852a2.725,2.725,0,0,0-1.171-.225,2.057,2.057,0,0,0-2.123,2.259,2.035,2.035,0,0,0,2.123,2.258,2.593,2.593,0,0,0,1.171-.225l.03.45a2.821,2.821,0,0,1-1.2.225,2.5,2.5,0,0,1-2.641-2.708,2.526,2.526,0,0,1,2.641-2.709,3.379,3.379,0,0,1,1.2.2Z" fill="#fff"/>
      <path id="Path_223" data-name="Path 223" d="M37.09,34.587a1.787,1.787,0,0,1,1.786,2,1.8,1.8,0,1,1-3.572,0,1.787,1.787,0,0,1,1.786-2m0,3.6c.826,0,1.268-.713,1.268-1.6s-.442-1.6-1.268-1.6-1.268.713-1.268,1.6.443,1.6,1.268,1.6" fill="#fff"/>
      <path id="Path_224" data-name="Path 224" d="M40.354,35.578c0-.293,0-.593-.03-.9h.458v.683H40.8a1.213,1.213,0,0,1,1.238-.773c.945,0,1.305.631,1.305,1.471V38.5h-.472V36.178c0-.72-.255-1.185-.908-1.185-.863,0-1.133.757-1.133,1.4V38.5h-.473Z" fill="#fff"/>
      <path id="Path_225" data-name="Path 225" d="M45.435,35.083h-.773v-.4h.773V34.4c0-.8.03-1.614,1.013-1.614a1.114,1.114,0,0,1,.442.075l-.029.414a.837.837,0,0,0-.376-.083c-.645,0-.577.7-.577,1.155v.331h.862v.4h-.862v3.422h-.473Z" fill="#fff"/>
      <path id="Path_226" data-name="Path 226" d="M50.762,38.385a3.137,3.137,0,0,1-1.111.209c-1.268,0-1.741-.855-1.741-2,0-1.17.646-2,1.614-2,1.08,0,1.523.87,1.523,1.9v.24H48.428a1.294,1.294,0,0,0,1.261,1.464,2.456,2.456,0,0,0,1.073-.286Zm-.233-2.064c0-.668-.27-1.328-.975-1.328a1.251,1.251,0,0,0-1.126,1.328Z" fill="#fff"/>
      <path id="Path_227" data-name="Path 227" d="M55.564,38.5h-.473V37.9h-.015a1.226,1.226,0,0,1-1.193.7c-1.051,0-1.576-.87-1.576-2,0-1.163.45-2,1.576-2a1.291,1.291,0,0,1,1.193.735h.015V32.876h.473Zm-1.606-.315c.84,0,1.133-.9,1.133-1.6s-.293-1.6-1.133-1.6c-.9,0-1.133.856-1.133,1.6s.233,1.6,1.133,1.6" fill="#fff"/>
      <path id="Path_228" data-name="Path 228" d="M59.856,38.385a3.137,3.137,0,0,1-1.111.209c-1.268,0-1.741-.855-1.741-2,0-1.17.646-2,1.614-2,1.08,0,1.523.87,1.523,1.9v.24H57.522a1.294,1.294,0,0,0,1.261,1.464,2.456,2.456,0,0,0,1.073-.286Zm-.233-2.064c0-.668-.27-1.328-.975-1.328a1.251,1.251,0,0,0-1.126,1.328Z" fill="#fff"/>
      <path id="Path_229" data-name="Path 229" d="M61.627,35.533a6.871,6.871,0,0,0-.03-.855h.473v.735h.015a1.134,1.134,0,0,1,.983-.825,1.385,1.385,0,0,1,.33.045v.495a1.242,1.242,0,0,0-.345-.045c-.751,0-.953.841-.953,1.531v1.891h-.473Z" fill="#fff"/>
      <path id="Path_230" data-name="Path 230" d="M66.91,37.889h-.015a1.347,1.347,0,0,1-1.216.706c-1.088,0-1.26-.736-1.26-1.081,0-1.283,1.366-1.343,2.356-1.343h.09v-.195c0-.653-.233-.983-.871-.983a2.033,2.033,0,0,0-1.125.315V34.85a3.023,3.023,0,0,1,1.125-.262c.946,0,1.344.427,1.344,1.426V37.7a5.516,5.516,0,0,0,.037.8H66.91Zm-.045-1.313H66.73c-.818,0-1.794.083-1.794.923,0,.5.361.691.8.691,1.11,0,1.133-.968,1.133-1.381Z" fill="#fff"/>
      <path id="Path_231" data-name="Path 231" d="M68.7,38.107,71,35.083H68.786v-.406h2.761v.406l-2.3,3.016h2.3v.4H68.7Z" fill="#fff"/>
      <path id="Path_232" data-name="Path 232" d="M73.438,33.657h-.473v-.63h.473Zm-.473,1.021h.473v3.827h-.473Z" fill="#fff"/>
      <path id="Path_233" data-name="Path 233" d="M78.2,37.6c0,.292,0,.593.03.9h-.458v-.682H77.76a1.215,1.215,0,0,1-1.239.772c-.945,0-1.305-.63-1.305-1.47V34.677h.472V37c0,.721.256,1.186.909,1.186.863,0,1.132-.758,1.132-1.4V34.677H78.2Z" fill="#fff"/>
      <path id="Path_234" data-name="Path 234" d="M79.974,35.578c0-.293,0-.593-.03-.9H80.4v.683h.015a1.213,1.213,0,0,1,1.238-.773c.945,0,1.305.631,1.305,1.471V38.5h-.472V36.178c0-.72-.255-1.185-.908-1.185-.864,0-1.133.757-1.133,1.4V38.5h-.473Z" fill="#fff"/>
      <path id="Path_235" data-name="Path 235" d="M87.035,37.949a2.244,2.244,0,0,0,1,.24c.45,0,.848-.248.848-.683,0-.908-1.839-.765-1.839-1.876,0-.758.615-1.043,1.246-1.043a3,3,0,0,1,.945.173l-.045.413a2.22,2.22,0,0,0-.847-.18c-.488,0-.826.149-.826.637,0,.713,1.883.623,1.883,1.876,0,.811-.758,1.088-1.335,1.088a2.88,2.88,0,0,1-1.073-.18Z" fill="#fff"/>
      <path id="Path_236" data-name="Path 236" d="M92.16,38.5H91.6l-1.3-3.827h.518l1.059,3.309H91.9l1.111-3.309h.5Z" fill="#fff"/>
      <path id="Path_237" data-name="Path 237" d="M95.221,33.657h-.473v-.63h.473Zm-.473,1.021h.473v3.827h-.473Z" fill="#fff"/>
      <path id="Path_238" data-name="Path 238" d="M96.647,38.107l2.3-3.024H96.737v-.406H99.5v.406l-2.3,3.016h2.3v.4H96.647Z" fill="#fff"/>
      <path id="Path_239" data-name="Path 239" d="M100.916,35.533a6.871,6.871,0,0,0-.03-.855h.473v.735h.014a1.137,1.137,0,0,1,.984-.825,1.385,1.385,0,0,1,.33.045v.495a1.242,1.242,0,0,0-.345-.045c-.751,0-.953.841-.953,1.531v1.891h-.473Z" fill="#fff"/>
      <path id="Path_240" data-name="Path 240" d="M106.2,37.889h-.015a1.347,1.347,0,0,1-1.216.706c-1.088,0-1.26-.736-1.26-1.081,0-1.283,1.365-1.343,2.356-1.343h.09v-.195c0-.653-.233-.983-.871-.983a2.029,2.029,0,0,0-1.125.315V34.85a3.023,3.023,0,0,1,1.125-.262c.946,0,1.344.427,1.344,1.426V37.7a5.516,5.516,0,0,0,.037.8H106.2Zm-.045-1.313h-.135c-.818,0-1.794.083-1.794.923,0,.5.361.691.8.691,1.11,0,1.133-.968,1.133-1.381Z" fill="#fff"/>
      <path id="Path_241" data-name="Path 241" d="M30.2,53.966h1.3a2.342,2.342,0,0,1,2.619,2.612c0,1.9-1.268,2.626-3,2.626H30.2Zm.518,4.788h.428c1.486,0,2.453-.6,2.453-2.206a1.9,1.9,0,0,0-2.123-2.131H30.72Z" fill="#fff"/>
      <path id="Path_242" data-name="Path 242" d="M38.351,59.084a3.138,3.138,0,0,1-1.111.21c-1.268,0-1.741-.855-1.741-2,0-1.171.646-2,1.613-2,1.081,0,1.524.871,1.524,1.9v.24H36.017a1.293,1.293,0,0,0,1.26,1.463,2.456,2.456,0,0,0,1.074-.285Zm-.233-2.063c0-.668-.27-1.329-.975-1.329a1.251,1.251,0,0,0-1.126,1.329ZM37.33,53.9h.593l-.945,1.081h-.346Z" fill="#fff"/>
      <path id="Path_243" data-name="Path 243" d="M40.077,55.378h.472l-.03.7h.015a1.321,1.321,0,0,1,1.223-.788c1.126,0,1.576.84,1.576,2,0,1.134-.525,2-1.576,2a1.187,1.187,0,0,1-1.193-.743h-.015v2.229h-.472Zm1.6.315c-.84,0-1.133.9-1.133,1.6s.293,1.6,1.133,1.6c.9,0,1.133-.856,1.133-1.6s-.232-1.6-1.133-1.6" fill="#fff"/>
      <path id="Path_244" data-name="Path 244" d="M47.078,58.589h-.015a1.347,1.347,0,0,1-1.216.706c-1.088,0-1.26-.736-1.26-1.081,0-1.283,1.365-1.343,2.356-1.343h.09v-.195c0-.653-.233-.983-.871-.983a2.029,2.029,0,0,0-1.125.315V55.55a3.018,3.018,0,0,1,1.125-.262c.946,0,1.344.427,1.344,1.426V58.4a5.517,5.517,0,0,0,.037.8h-.465Zm-.045-1.313H46.9c-.818,0-1.794.083-1.794.923,0,.5.361.691.8.691,1.11,0,1.133-.968,1.133-1.381Z" fill="#fff"/>
      <path id="Path_245" data-name="Path 245" d="M49.216,56.233a6.871,6.871,0,0,0-.03-.855h.473v.735h.015a1.134,1.134,0,0,1,.983-.825,1.378,1.378,0,0,1,.33.045v.495a1.242,1.242,0,0,0-.345-.045c-.751,0-.953.841-.953,1.531v1.891h-.473Z" fill="#fff"/>
      <path id="Path_246" data-name="Path 246" d="M53.951,55.783H53.08V58.26c0,.345.128.63.511.63a1.1,1.1,0,0,0,.435-.09l.03.39a1.723,1.723,0,0,1-.578.1c-.84,0-.87-.578-.87-1.276V55.783h-.751v-.405h.751v-.923l.472-.165v1.088h.871Z" fill="#fff"/>
      <path id="Path_247" data-name="Path 247" d="M57.951,59.085a3.137,3.137,0,0,1-1.111.209c-1.268,0-1.741-.855-1.741-2,0-1.17.646-2,1.614-2,1.08,0,1.523.87,1.523,1.9v.24H55.617a1.293,1.293,0,0,0,1.261,1.464,2.469,2.469,0,0,0,1.073-.285Zm-.233-2.064c0-.668-.27-1.328-.975-1.328a1.251,1.251,0,0,0-1.126,1.328Z" fill="#fff"/>
      <path id="Path_248" data-name="Path 248" d="M64.344,59.205V56.661c0-.54-.2-.968-.811-.968-.518,0-1.028.443-1.028,1.4v2.116h-.472V56.661c0-.54-.2-.968-.81-.968-.519,0-1.029.443-1.029,1.4v2.116h-.472V56.279c0-.293,0-.593-.03-.9h.457v.645l.015.008a1.2,1.2,0,0,1,1.193-.743.964.964,0,0,1,1.013.811h.016a1.283,1.283,0,0,1,1.222-.811,1.168,1.168,0,0,1,1.209,1.283v2.634Z" fill="#fff"/>
      <path id="Path_249" data-name="Path 249" d="M69.124,59.085a3.137,3.137,0,0,1-1.111.209c-1.268,0-1.742-.855-1.742-2,0-1.17.647-2,1.615-2,1.079,0,1.523.87,1.523,1.9v.24H66.79a1.294,1.294,0,0,0,1.261,1.464,2.469,2.469,0,0,0,1.073-.285Zm-.233-2.064c0-.668-.27-1.328-.975-1.328a1.251,1.251,0,0,0-1.126,1.328Z" fill="#fff"/>
      <path id="Path_250" data-name="Path 250" d="M70.894,56.278c0-.293,0-.593-.03-.9h.458v.683h.015a1.213,1.213,0,0,1,1.238-.773c.945,0,1.305.631,1.305,1.471V59.2h-.472V56.878c0-.72-.255-1.186-.908-1.186-.863,0-1.133.758-1.133,1.4V59.2h-.473Z" fill="#fff"/>
      <path id="Path_251" data-name="Path 251" d="M77.3,55.783h-.871V58.26c0,.345.128.63.511.63a1.1,1.1,0,0,0,.435-.09l.03.39a1.723,1.723,0,0,1-.578.1c-.84,0-.87-.578-.87-1.276V55.783h-.751v-.405h.751v-.923l.472-.165v1.088H77.3Z" fill="#fff"/>
      <path id="Path_252" data-name="Path 252" d="M81.73,55.783h-.773v-.405h.773V55.1c0-.8.03-1.613,1.013-1.613a1.1,1.1,0,0,1,.443.075l-.03.413a.834.834,0,0,0-.376-.083c-.645,0-.577.7-.577,1.156v.33h.862v.405H82.2v3.422H81.73Z" fill="#fff"/>
      <path id="Path_253" data-name="Path 253" d="M87.058,59.084a3.142,3.142,0,0,1-1.111.21c-1.268,0-1.741-.855-1.741-2,0-1.171.645-2,1.613-2,1.081,0,1.524.871,1.524,1.9v.24H84.724a1.293,1.293,0,0,0,1.26,1.463,2.46,2.46,0,0,0,1.074-.285Zm-.233-2.063c0-.668-.27-1.329-.975-1.329a1.251,1.251,0,0,0-1.126,1.329ZM86.037,53.9h.593l-.946,1.081h-.345Z" fill="#fff"/>
      <path id="Path_254" data-name="Path 254" d="M91.86,59.205h-.473V58.6h-.015a1.226,1.226,0,0,1-1.193.7c-1.051,0-1.576-.87-1.576-2,0-1.163.45-2,1.576-2a1.291,1.291,0,0,1,1.193.735h.015V53.577h.473Zm-1.606-.315c.84,0,1.133-.9,1.133-1.6s-.293-1.6-1.133-1.6c-.9,0-1.133.856-1.133,1.6s.233,1.6,1.133,1.6" fill="#fff"/>
      <path id="Path_255" data-name="Path 255" d="M96.151,59.084a3.133,3.133,0,0,1-1.11.21c-1.268,0-1.741-.855-1.741-2,0-1.171.645-2,1.613-2,1.081,0,1.524.871,1.524,1.9v.24H93.818a1.293,1.293,0,0,0,1.26,1.463,2.456,2.456,0,0,0,1.073-.285Zm-.232-2.063c0-.668-.27-1.329-.975-1.329a1.251,1.251,0,0,0-1.126,1.329ZM95.131,53.9h.593l-.946,1.081h-.345Z" fill="#fff"/>
      <path id="Path_256" data-name="Path 256" d="M97.923,56.233a6.871,6.871,0,0,0-.03-.855h.473v.735h.015a1.134,1.134,0,0,1,.983-.825,1.378,1.378,0,0,1,.33.045v.495a1.242,1.242,0,0,0-.345-.045c-.751,0-.953.841-.953,1.531v1.891h-.473Z" fill="#fff"/>
      <path id="Path_257" data-name="Path 257" d="M103.205,58.589h-.015a1.345,1.345,0,0,1-1.215.706c-1.089,0-1.26-.736-1.26-1.081,0-1.283,1.364-1.343,2.356-1.343h.089v-.195c0-.653-.233-.983-.871-.983a2.033,2.033,0,0,0-1.125.315V55.55a3.018,3.018,0,0,1,1.125-.262c.946,0,1.344.427,1.344,1.426V58.4a5.374,5.374,0,0,0,.038.8h-.466Zm-.045-1.313h-.135c-.818,0-1.794.083-1.794.923,0,.5.361.691.8.691,1.11,0,1.133-.968,1.133-1.381Z" fill="#fff"/>
      <rect id="Rectangle_17" data-name="Rectangle 17" width="0.473" height="5.628" transform="translate(105.344 53.576)" fill="#fff"/>
      <path id="Path_258" data-name="Path 258" d="M113.3,59.205h-.473V58.6h-.015a1.226,1.226,0,0,1-1.193.7c-1.051,0-1.576-.87-1.576-2,0-1.163.45-2,1.576-2a1.291,1.291,0,0,1,1.193.735h.015V53.577h.473Zm-1.606-.315c.84,0,1.133-.9,1.133-1.6s-.293-1.6-1.133-1.6c-.9,0-1.133.856-1.133,1.6s.233,1.6,1.133,1.6" fill="#fff"/>
      <path id="Path_259" data-name="Path 259" d="M117.59,59.085a3.137,3.137,0,0,1-1.111.209c-1.268,0-1.741-.855-1.741-2,0-1.17.646-2,1.614-2,1.08,0,1.523.87,1.523,1.9v.24h-2.619a1.294,1.294,0,0,0,1.261,1.464,2.469,2.469,0,0,0,1.073-.285Zm-.233-2.064c0-.668-.27-1.328-.975-1.328a1.251,1.251,0,0,0-1.126,1.328Z" fill="#fff"/>
      <rect id="Rectangle_18" data-name="Rectangle 18" width="0.473" height="5.628" transform="translate(122.032 53.576)" fill="#fff"/>
      <path id="Path_260" data-name="Path 260" d="M124.673,53.967h.563l-.578,1.636h-.428Z" fill="#fff"/>
      <path id="Path_261" data-name="Path 261" d="M127.427,54.357h-.473v-.63h.473Zm-.473,1.021h.473v3.827h-.473Z" fill="#fff"/>
      <path id="Path_262" data-name="Path 262" d="M129.205,56.278c0-.293,0-.593-.03-.9h.458v.683h.015a1.213,1.213,0,0,1,1.238-.773c.945,0,1.3.631,1.3,1.471V59.2h-.472V56.878c0-.72-.255-1.186-.908-1.186-.863,0-1.133.758-1.133,1.4V59.2h-.473Z" fill="#fff"/>
      <path id="Path_263" data-name="Path 263" d="M135.614,55.783h-.871V58.26c0,.345.128.63.511.63a1.1,1.1,0,0,0,.435-.09l.03.39a1.723,1.723,0,0,1-.578.1c-.84,0-.87-.578-.87-1.276V55.783h-.751v-.405h.751v-.923l.472-.165v1.088h.871Z" fill="#fff"/>
      <path id="Path_264" data-name="Path 264" d="M139.614,59.084a3.142,3.142,0,0,1-1.111.21c-1.268,0-1.741-.855-1.741-2,0-1.171.645-2,1.613-2,1.081,0,1.524.871,1.524,1.9v.24H137.28a1.293,1.293,0,0,0,1.26,1.463,2.464,2.464,0,0,0,1.074-.285Zm-.233-2.063c0-.668-.27-1.329-.975-1.329a1.251,1.251,0,0,0-1.126,1.329Zm-.788-3.122h.593l-.946,1.081H137.9Z" fill="#fff"/>
      <path id="Path_265" data-name="Path 265" d="M141.384,56.233a6.871,6.871,0,0,0-.03-.855h.473v.735h.015a1.135,1.135,0,0,1,.983-.825,1.385,1.385,0,0,1,.33.045v.495a1.242,1.242,0,0,0-.345-.045c-.751,0-.953.841-.953,1.531v1.891h-.473Z" fill="#fff"/>
      <path id="Path_266" data-name="Path 266" d="M144.941,54.357h-.473v-.63h.473Zm-.473,1.021h.473v3.827h-.473Z" fill="#fff"/>
      <path id="Path_267" data-name="Path 267" d="M149.285,59.085a3.131,3.131,0,0,1-1.11.209c-1.268,0-1.741-.855-1.741-2,0-1.17.645-2,1.613-2,1.081,0,1.524.87,1.524,1.9v.24h-2.62a1.294,1.294,0,0,0,1.261,1.464,2.466,2.466,0,0,0,1.073-.285Zm-.232-2.064c0-.668-.271-1.328-.976-1.328a1.251,1.251,0,0,0-1.126,1.328Z" fill="#fff"/>
      <path id="Path_268" data-name="Path 268" d="M154.042,58.3c0,.292,0,.593.03.9h-.458v-.682H153.6a1.218,1.218,0,0,1-1.239.772c-.945,0-1.3-.63-1.3-1.47V55.377h.472V57.7c0,.721.255,1.186.909,1.186.862,0,1.132-.758,1.132-1.4V55.377h.473Z" fill="#fff"/>
      <path id="Path_269" data-name="Path 269" d="M155.813,56.233a6.871,6.871,0,0,0-.03-.855h.472v.735h.016a1.134,1.134,0,0,1,.982-.825,1.379,1.379,0,0,1,.331.045v.495a1.237,1.237,0,0,0-.345-.045c-.75,0-.953.841-.953,1.531v1.891h-.473Z" fill="#fff"/>
      <path id="Path_270" data-name="Path 270" d="M161.576,53.966h1.3a2.342,2.342,0,0,1,2.619,2.612c0,1.9-1.268,2.626-3,2.626h-.915Zm.518,4.788h.428c1.485,0,2.453-.6,2.453-2.206a1.9,1.9,0,0,0-2.123-2.131h-.758Z" fill="#fff"/>
      <path id="Path_271" data-name="Path 271" d="M167.144,53.967h2.491v.45h-1.973v1.869h1.882v.45h-1.882V59.2h-.518Z" fill="#fff"/>
      <rect id="Rectangle_19" data-name="Rectangle 19" width="0.518" height="5.238" transform="translate(171.061 53.966)" fill="#fff"/>
      <path id="Path_272" data-name="Path 272" d="M32.52,64.227a2.712,2.712,0,1,1-2.566,2.694,2.449,2.449,0,0,1,2.566-2.694m0,4.592c1.073,0,1.471-.953,1.471-1.9,0-.923-.428-1.869-1.471-1.869s-1.471.946-1.471,1.869c0,.945.4,1.9,1.471,1.9" fill="#fff"/>
      <path id="Path_273" data-name="Path 273" d="M36.437,66.426h-.743v-.735h.743V65.15a1.182,1.182,0,0,1,1.231-1.313,3.544,3.544,0,0,1,.735.083l-.082.833a.78.78,0,0,0-.436-.136c-.337,0-.442.293-.442.593v.481h.878v.735h-.878v3.129H36.437Z" fill="#fff"/>
      <path id="Path_274" data-name="Path 274" d="M39.335,66.426h-.743v-.735h.743V65.15a1.182,1.182,0,0,1,1.231-1.313,3.544,3.544,0,0,1,.735.083l-.082.833a.778.778,0,0,0-.436-.136c-.337,0-.442.293-.442.593v.481h.878v.735h-.878v3.129H39.335Z" fill="#fff"/>
      <path id="Path_275" data-name="Path 275" d="M42.021,64.025h1.006v.96H42.021Zm0,1.666h1.006v3.864H42.021Z" fill="#fff"/>
      <path id="Path_276" data-name="Path 276" d="M46.7,66.523a1.509,1.509,0,0,0-.682-.143c-.624,0-1.021.5-1.021,1.224s.337,1.26,1.043,1.26a2.135,2.135,0,0,0,.773-.18l.045.833a3.247,3.247,0,0,1-1.006.128,2.027,2.027,0,0,1-.036-4.045,3.248,3.248,0,0,1,.974.128Z" fill="#fff"/>
      <path id="Path_277" data-name="Path 277" d="M50.74,69.337a2.646,2.646,0,0,1-1.328.308,1.836,1.836,0,0,1-2.018-2A1.807,1.807,0,0,1,49.187,65.6c1.433,0,1.838.982,1.838,2.334H48.354a1.011,1.011,0,0,0,1.1.975,2.6,2.6,0,0,0,1.283-.391Zm-.675-2.093c-.03-.488-.255-.908-.818-.908a.875.875,0,0,0-.893.908Z" fill="#fff"/>
      <path id="Path_278" data-name="Path 278" d="M54.492,66.426h-.743v-.735h.743V65.15a1.182,1.182,0,0,1,1.231-1.313,3.544,3.544,0,0,1,.735.083l-.082.833a.78.78,0,0,0-.436-.136c-.337,0-.442.293-.442.593v.481h.878v.735H55.5v3.129H54.492Z" fill="#fff"/>
      <path id="Path_279" data-name="Path 279" d="M60.255,69.337a2.662,2.662,0,0,1-1.328.307,1.836,1.836,0,0,1-2.019-2A1.808,1.808,0,0,1,58.7,65.6c1.433,0,1.838.983,1.838,2.334H57.869a1.01,1.01,0,0,0,1.1.975,2.609,2.609,0,0,0,1.283-.39Zm-.675-2.094c-.03-.488-.255-.908-.818-.908a.875.875,0,0,0-.893.908Zm-.788-3.174H59.82l-1.028,1.1h-.623Z" fill="#fff"/>
      <path id="Path_280" data-name="Path 280" d="M64.015,69.119H64a1.435,1.435,0,0,1-1.185.525c-1.186,0-1.621-.975-1.621-2.033s.435-2.011,1.621-2.011a1.374,1.374,0,0,1,1.155.54h.015V63.927h1v5.628h-.975Zm-.923-.255c.668,0,.886-.705.886-1.253s-.256-1.231-.9-1.231-.833.713-.833,1.231.188,1.253.848,1.253" fill="#fff"/>
      <path id="Path_281" data-name="Path 281" d="M69.237,69.337a2.656,2.656,0,0,1-1.328.307,1.836,1.836,0,0,1-2.018-2A1.808,1.808,0,0,1,67.684,65.6c1.433,0,1.839.983,1.839,2.334H66.851a1.011,1.011,0,0,0,1.1.975,2.606,2.606,0,0,0,1.283-.39Zm-.675-2.094c-.03-.488-.255-.908-.818-.908a.875.875,0,0,0-.893.908Zm-.788-3.174H68.8l-1.028,1.1h-.622Z" fill="#fff"/>
      <path id="Path_282" data-name="Path 282" d="M70.445,65.69h.893v.878h.015a1.184,1.184,0,0,1,1.058-.968,1.1,1.1,0,0,1,.308.03v1.013a1.016,1.016,0,0,0-.45-.083c-.818,0-.818,1.021-.818,1.576v1.418H70.445Z" fill="#fff"/>
      <path id="Path_283" data-name="Path 283" d="M73.627,65.893A3.458,3.458,0,0,1,74.97,65.6c1.178,0,1.666.488,1.666,1.628v.5c0,.39.007.684.015.969s.022.562.045.863H75.81a4.932,4.932,0,0,1-.045-.578H75.75a1.379,1.379,0,0,1-1.193.667A1.232,1.232,0,0,1,73.206,68.5a1.137,1.137,0,0,1,.661-1.1,3.069,3.069,0,0,1,1.3-.225h.555c0-.622-.277-.833-.87-.833a2.015,2.015,0,0,0-1.193.421Zm1.178,3.016a.853.853,0,0,0,.705-.345,1.281,1.281,0,0,0,.21-.8h-.435c-.45,0-1.118.076-1.118.668,0,.33.278.473.638.473" fill="#fff"/>
      <rect id="Rectangle_20" data-name="Rectangle 20" width="1.006" height="5.628" transform="translate(77.761 63.927)" fill="#fff"/>
      <path id="Path_284" data-name="Path 284" d="M84.709,69.119h-.015a1.433,1.433,0,0,1-1.185.525c-1.185,0-1.621-.975-1.621-2.033s.436-2.011,1.621-2.011a1.373,1.373,0,0,1,1.155.54h.015V63.927h1.006v5.628h-.976Zm-.923-.255c.668,0,.887-.705.887-1.253s-.257-1.231-.9-1.231-.833.713-.833,1.231.188,1.253.848,1.253" fill="#fff"/>
      <path id="Path_285" data-name="Path 285" d="M89.932,69.337a2.646,2.646,0,0,1-1.328.308,1.836,1.836,0,0,1-2.018-2A1.807,1.807,0,0,1,88.379,65.6c1.433,0,1.839.982,1.839,2.334H87.546a1.011,1.011,0,0,0,1.1.975,2.6,2.6,0,0,0,1.283-.391Zm-.675-2.093c-.03-.488-.255-.908-.818-.908a.876.876,0,0,0-.893.908Z" fill="#fff"/>
      <rect id="Rectangle_21" data-name="Rectangle 21" width="1.006" height="5.628" transform="translate(93.339 63.927)" fill="#fff"/>
      <path id="Path_286" data-name="Path 286" d="M95.688,65.893a3.458,3.458,0,0,1,1.343-.293c1.178,0,1.666.488,1.666,1.628v.5c0,.39.007.684.015.969s.022.562.045.863h-.886a4.93,4.93,0,0,1-.045-.578h-.015a1.379,1.379,0,0,1-1.193.667A1.232,1.232,0,0,1,95.267,68.5a1.137,1.137,0,0,1,.661-1.1,3.069,3.069,0,0,1,1.3-.225h.555c0-.622-.277-.833-.87-.833a2.015,2.015,0,0,0-1.193.421Zm1.178,3.016a.853.853,0,0,0,.705-.345,1.281,1.281,0,0,0,.21-.8h-.435c-.45,0-1.118.076-1.118.668,0,.33.278.473.638.473" fill="#fff"/>
      <path id="Path_287" data-name="Path 287" d="M104.5,66.523a1.511,1.511,0,0,0-.683-.143c-.623,0-1.02.5-1.02,1.224s.337,1.26,1.043,1.26a2.135,2.135,0,0,0,.773-.18l.045.833a3.251,3.251,0,0,1-1.006.128,2.027,2.027,0,0,1-.037-4.045,3.251,3.251,0,0,1,.975.128Z" fill="#fff"/>
      <path id="Path_288" data-name="Path 288" d="M108.992,69.555h-.953V69.03h-.015a1.611,1.611,0,0,1-1.268.615c-.915,0-1.313-.645-1.313-1.516V65.691h1v2.063c0,.473.008,1.11.653,1.11.728,0,.886-.787.886-1.283v-1.89h1Z" fill="#fff"/>
      <rect id="Rectangle_22" data-name="Rectangle 22" width="1.006" height="5.628" transform="translate(110.162 63.927)" fill="#fff"/>
      <path id="Path_289" data-name="Path 289" d="M112.668,66.426h-.743v-.735h.743v-.773l1-.323v1.1h.893v.735h-.893v1.8c0,.33.09.637.473.637a.905.905,0,0,0,.458-.1l.03.795a2.648,2.648,0,0,1-.743.09,1.136,1.136,0,0,1-1.223-1.253Z" fill="#fff"/>
      <path id="Path_290" data-name="Path 290" d="M118.919,69.555h-.953V69.03h-.015a1.611,1.611,0,0,1-1.268.615c-.915,0-1.313-.645-1.313-1.516V65.691h1.006v2.063c0,.473.007,1.11.652,1.11.728,0,.886-.787.886-1.283v-1.89h1Z" fill="#fff"/>
      <path id="Path_291" data-name="Path 291" d="M120.089,65.69h.893v.878H121a1.184,1.184,0,0,1,1.058-.968,1.1,1.1,0,0,1,.308.03v1.013a1.016,1.016,0,0,0-.45-.083c-.818,0-.818,1.021-.818,1.576v1.418h-1.006Z" fill="#fff"/>
      <path id="Path_292" data-name="Path 292" d="M126.063,69.337a2.646,2.646,0,0,1-1.328.308,1.836,1.836,0,0,1-2.018-2A1.807,1.807,0,0,1,124.51,65.6c1.433,0,1.838.982,1.838,2.334h-2.671a1.011,1.011,0,0,0,1.1.975,2.6,2.6,0,0,0,1.283-.391Zm-.675-2.093c-.03-.488-.255-.908-.818-.908a.875.875,0,0,0-.893.908Z" fill="#fff"/>
      <path id="Path_293" data-name="Path 293" d="M131.849,64.227a2.712,2.712,0,1,1-2.566,2.694,2.449,2.449,0,0,1,2.566-2.694m0,4.592c1.073,0,1.471-.953,1.471-1.9,0-.923-.428-1.869-1.471-1.869s-1.471.946-1.471,1.869c0,.945.4,1.9,1.471,1.9" fill="#fff"/>
      <path id="Path_294" data-name="Path 294" d="M135.488,64.317H138.4v.826h-1.861v1.29h1.771v.825h-1.771v2.3h-1.05Z" fill="#fff"/>
      <path id="Path_295" data-name="Path 295" d="M143.165,69.48a5.318,5.318,0,0,1-1.193.165c-1.7,0-2.874-.848-2.874-2.619a2.6,2.6,0,0,1,2.874-2.8,3.461,3.461,0,0,1,1.185.218l-.075.886a2.153,2.153,0,0,0-1.133-.278,1.75,1.75,0,0,0-1.756,1.9,1.726,1.726,0,0,0,1.779,1.869,2.918,2.918,0,0,0,1.148-.218Z" fill="#fff"/>
      <path id="Path_296" data-name="Path 296" d="M21.516,1.988A28.7,28.7,0,0,0,10.9.25h0A28.716,28.716,0,0,0,.286,1.988s-.355,7.7,1.152,12.048a16.091,16.091,0,0,0,9.462,9.8h0a16.1,16.1,0,0,0,9.462-9.8c1.506-4.352,1.15-12.048,1.15-12.048" fill="#1a1818"/>
      <path id="Path_297" data-name="Path 297" d="M21.516,1.988A28.7,28.7,0,0,0,10.9.25h0A28.716,28.716,0,0,0,.286,1.988s-.355,7.7,1.152,12.048a16.091,16.091,0,0,0,9.462,9.8h0a16.1,16.1,0,0,0,9.462-9.8C21.872,9.684,21.516,1.988,21.516,1.988Z" fill="none" stroke="#fff" stroke-width="0.5"/>
      <path id="Path_298" data-name="Path 298" d="M17.955,8.623v4.24H13.008v4.948H8.767V12.863H3.82V8.623H8.767V3.677h4.24V8.623Z" fill="#fff"/>
    </g>
  </g>
</svg>
