<svg xmlns="http://www.w3.org/2000/svg" xmlns:xlink="http://www.w3.org/1999/xlink" width="195.762" height="69.644" viewBox="0 0 195.762 69.644">
  <defs>
    <clipPath id="clip-path">
      <rect id="Rectangle_20" data-name="Rectangle 20" width="195.762" height="69.644" transform="translate(0 0.001)" fill="none"/>
    </clipPath>
  </defs>
  <g id="Group_8" data-name="Group 8" transform="translate(0 0)">
    <g id="Group_7" data-name="Group 7" clip-path="url(#clip-path)">
      <path id="Path_150" data-name="Path 150" d="M30.164,6.787a2.063,2.063,0,0,0,1.155.308A1.045,1.045,0,0,0,32.5,6.022c0-1.028-2.4-1.156-2.4-2.529a1.475,1.475,0,0,1,1.659-1.366,3.131,3.131,0,0,1,1.028.173l-.083.473a2.125,2.125,0,0,0-.953-.195c-.54,0-1.133.225-1.133.9,0,1.051,2.4,1.058,2.4,2.589A1.536,1.536,0,0,1,31.3,7.545a3,3,0,0,1-1.186-.225Z" fill="#fff"/>
      <path id="Path_151" data-name="Path 151" d="M37.082,4.138a2.178,2.178,0,0,0-.818-.195,1.425,1.425,0,0,0-1.441,1.6,1.451,1.451,0,0,0,1.388,1.6,2.464,2.464,0,0,0,.864-.173l.045.443a2.85,2.85,0,0,1-.983.135,1.814,1.814,0,0,1-1.831-2,1.854,1.854,0,0,1,1.891-2,2.872,2.872,0,0,1,.923.15Z" fill="#fff"/>
      <path id="Path_152" data-name="Path 152" d="M38.508,1.827h.473V4.273H39a1.3,1.3,0,0,1,1.193-.735c1.028,0,1.305.683,1.305,1.628V7.455h-.472V5.174c0-.66-.128-1.231-.908-1.231-.84,0-1.133.8-1.133,1.464V7.455h-.473Z" fill="#fff"/>
      <path id="Path_153" data-name="Path 153" d="M47.2,7.455h-.57L45.585,4.146H45.57L44.527,7.455h-.571l-1.23-3.827h.517l1.006,3.309h.015l1.065-3.309H45.9l1.013,3.309h.015l1.058-3.309h.472Z" fill="#fff"/>
      <path id="Path_154" data-name="Path 154" d="M52.255,7.335a3.137,3.137,0,0,1-1.111.209c-1.268,0-1.741-.855-1.741-2,0-1.17.646-2,1.614-2,1.08,0,1.523.87,1.523,1.9v.24H49.921A1.293,1.293,0,0,0,51.182,7.14a2.47,2.47,0,0,0,1.073-.285Zm-.233-2.064c0-.668-.27-1.328-.975-1.328a1.251,1.251,0,0,0-1.126,1.328Z" fill="#fff"/>
      <path id="Path_155" data-name="Path 155" d="M54.5,2.606h-.473V1.977H54.5Zm-.472,1.022H54.5V7.455h-.473Z" fill="#fff"/>
      <path id="Path_156" data-name="Path 156" d="M55.925,7.057l2.3-3.024H56.015V3.627h2.761v.406l-2.3,3.016h2.3v.4H55.925Z" fill="#fff"/>
      <path id="Path_157" data-name="Path 157" d="M62.76,7.335a3.137,3.137,0,0,1-1.111.209c-1.268,0-1.741-.855-1.741-2,0-1.17.646-2,1.614-2,1.08,0,1.523.87,1.523,1.9v.24H60.426A1.294,1.294,0,0,0,61.687,7.14a2.469,2.469,0,0,0,1.073-.285Zm-.233-2.064c0-.668-.27-1.328-.975-1.328a1.251,1.251,0,0,0-1.126,1.328Z" fill="#fff"/>
      <path id="Path_158" data-name="Path 158" d="M64.531,4.483a6.871,6.871,0,0,0-.03-.855h.473v.735h.015a1.134,1.134,0,0,1,.983-.825,1.378,1.378,0,0,1,.33.045v.5a1.242,1.242,0,0,0-.345-.045c-.751,0-.953.841-.953,1.531V7.455h-.473Z" fill="#fff"/>
      <path id="Path_159" data-name="Path 159" d="M68.088,2.606h-.473V1.977h.473Zm-.473,1.022h.473V7.455h-.473Z" fill="#fff"/>
      <path id="Path_160" data-name="Path 160" d="M69.574,6.9a2.244,2.244,0,0,0,1,.24c.45,0,.848-.248.848-.683,0-.908-1.839-.765-1.839-1.876,0-.758.616-1.043,1.246-1.043a3,3,0,0,1,.945.173l-.045.413a2.222,2.222,0,0,0-.847-.181c-.488,0-.826.15-.826.638,0,.713,1.883.623,1.883,1.876,0,.811-.758,1.088-1.335,1.088a2.88,2.88,0,0,1-1.073-.18Z" fill="#fff"/>
      <path id="Path_161" data-name="Path 161" d="M75.861,4.138a2.178,2.178,0,0,0-.818-.195,1.425,1.425,0,0,0-1.441,1.6,1.451,1.451,0,0,0,1.388,1.6,2.459,2.459,0,0,0,.864-.173l.045.443a2.85,2.85,0,0,1-.983.135,1.814,1.814,0,0,1-1.831-2,1.854,1.854,0,0,1,1.891-2,2.872,2.872,0,0,1,.923.15Z" fill="#fff"/>
      <path id="Path_162" data-name="Path 162" d="M77.287,1.827h.473V4.273h.015a1.3,1.3,0,0,1,1.193-.735c1.028,0,1.305.683,1.305,1.628V7.455H79.8V5.174c0-.66-.128-1.231-.908-1.231-.84,0-1.133.8-1.133,1.464V7.455h-.473Z" fill="#fff"/>
      <path id="Path_163" data-name="Path 163" d="M84.611,7.335a3.137,3.137,0,0,1-1.111.209c-1.268,0-1.741-.855-1.741-2,0-1.17.646-2,1.614-2,1.08,0,1.523.87,1.523,1.9v.24H82.277A1.294,1.294,0,0,0,83.538,7.14a2.469,2.469,0,0,0,1.073-.285Zm-.233-2.064c0-.668-.27-1.328-.975-1.328a1.251,1.251,0,0,0-1.126,1.328Z" fill="#fff"/>
      <path id="Path_164" data-name="Path 164" d="M88.88,2.217h2.566v.45H89.4V4.536h1.944v.45H89.4V7h2.139v.45H88.88Z" fill="#fff"/>
      <path id="Path_165" data-name="Path 165" d="M93.638,2.606h-.473V1.977h.473Zm-.473,1.022h.473V7.455h-.473Z" fill="#fff"/>
      <path id="Path_166" data-name="Path 166" d="M98.448,7.455h-.473V6.847H97.96a1.226,1.226,0,0,1-1.193.7c-1.051,0-1.576-.87-1.576-2,0-1.163.45-2,1.576-2a1.291,1.291,0,0,1,1.193.735h.015V1.827h.473ZM96.842,7.14c.84,0,1.133-.9,1.133-1.6s-.293-1.6-1.133-1.6c-.9,0-1.133.856-1.133,1.6s.233,1.6,1.133,1.6" fill="#fff"/>
      <path id="Path_167" data-name="Path 167" d="M103.205,7.139c0,1.066-.48,1.936-1.793,1.936a3.966,3.966,0,0,1-1.156-.2l.038-.472a2.592,2.592,0,0,0,1.125.27c1.216,0,1.321-.886,1.321-1.966h-.015a1.186,1.186,0,0,1-1.163.75c-1.223,0-1.614-1.065-1.614-1.913,0-1.163.451-2,1.576-2a1.264,1.264,0,0,1,1.193.526h.015V3.627h.473Zm-1.636-.09c.855,0,1.163-.811,1.163-1.508,0-.923-.27-1.6-1.133-1.6-.9,0-1.133.856-1.133,1.6s.3,1.508,1.1,1.508" fill="#fff"/>
      <path id="Path_168" data-name="Path 168" d="M107.5,7.335a3.137,3.137,0,0,1-1.111.209c-1.268,0-1.741-.855-1.741-2,0-1.17.646-2,1.614-2,1.08,0,1.523.87,1.523,1.9v.24h-2.619a1.294,1.294,0,0,0,1.261,1.464,2.47,2.47,0,0,0,1.073-.285Zm-.233-2.064c0-.668-.27-1.328-.975-1.328a1.251,1.251,0,0,0-1.126,1.328Z" fill="#fff"/>
      <path id="Path_169" data-name="Path 169" d="M109.268,4.528c0-.293,0-.593-.03-.9h.458V4.31h.015a1.213,1.213,0,0,1,1.238-.773c.946,0,1.305.631,1.305,1.471V7.454h-.472V5.128c0-.72-.255-1.186-.908-1.186-.863,0-1.133.758-1.133,1.4V7.454h-.473Z" fill="#fff"/>
      <path id="Path_170" data-name="Path 170" d="M115.518,3.538a1.787,1.787,0,0,1,1.786,2,1.8,1.8,0,1,1-3.572,0,1.787,1.787,0,0,1,1.786-2m0,3.6c.826,0,1.268-.713,1.268-1.6s-.442-1.6-1.268-1.6-1.268.713-1.268,1.6.443,1.6,1.268,1.6" fill="#fff"/>
      <path id="Path_171" data-name="Path 171" d="M118.49,6.9a2.244,2.244,0,0,0,1,.24c.45,0,.848-.248.848-.683,0-.908-1.839-.765-1.839-1.876,0-.758.616-1.043,1.246-1.043a3,3,0,0,1,.945.173l-.045.413a2.222,2.222,0,0,0-.847-.181c-.488,0-.826.15-.826.638,0,.713,1.884.623,1.884,1.876,0,.811-.759,1.088-1.336,1.088a2.883,2.883,0,0,1-1.073-.18Z" fill="#fff"/>
      <path id="Path_172" data-name="Path 172" d="M121.994,6.9a2.244,2.244,0,0,0,1,.24c.45,0,.848-.248.848-.683,0-.908-1.839-.765-1.839-1.876,0-.758.616-1.043,1.246-1.043a3,3,0,0,1,.945.173l-.045.413a2.222,2.222,0,0,0-.847-.181c-.488,0-.826.15-.826.638,0,.713,1.884.623,1.884,1.876,0,.811-.759,1.088-1.336,1.088a2.883,2.883,0,0,1-1.073-.18Z" fill="#fff"/>
      <path id="Path_173" data-name="Path 173" d="M128.357,7.335a3.137,3.137,0,0,1-1.111.209c-1.268,0-1.741-.855-1.741-2,0-1.17.646-2,1.614-2,1.08,0,1.523.87,1.523,1.9v.24h-2.619a1.294,1.294,0,0,0,1.261,1.464,2.469,2.469,0,0,0,1.073-.285Zm-.233-2.064c0-.668-.27-1.328-.975-1.328a1.251,1.251,0,0,0-1.126,1.328Z" fill="#fff"/>
      <path id="Path_174" data-name="Path 174" d="M130.128,4.528c0-.293,0-.593-.03-.9h.458V4.31h.015a1.213,1.213,0,0,1,1.238-.773c.946,0,1.3.631,1.3,1.471V7.454h-.472V5.128c0-.72-.255-1.186-.908-1.186-.863,0-1.133.758-1.133,1.4V7.454h-.473Z" fill="#fff"/>
      <path id="Path_175" data-name="Path 175" d="M134.593,6.9a2.244,2.244,0,0,0,1,.24c.45,0,.848-.248.848-.683,0-.908-1.839-.765-1.839-1.876,0-.758.615-1.043,1.246-1.043a3,3,0,0,1,.945.173l-.045.413a2.222,2.222,0,0,0-.847-.181c-.488,0-.826.15-.826.638,0,.713,1.884.623,1.884,1.876,0,.811-.759,1.088-1.336,1.088a2.888,2.888,0,0,1-1.074-.18Z" fill="#fff"/>
      <path id="Path_176" data-name="Path 176" d="M140.881,4.138a2.178,2.178,0,0,0-.818-.195,1.425,1.425,0,0,0-1.441,1.6,1.451,1.451,0,0,0,1.388,1.6,2.459,2.459,0,0,0,.864-.173l.045.443a2.85,2.85,0,0,1-.983.135,1.814,1.814,0,0,1-1.831-2,1.855,1.855,0,0,1,1.891-2,2.872,2.872,0,0,1,.923.15Z" fill="#fff"/>
      <path id="Path_177" data-name="Path 177" d="M142.307,1.827h.473V4.273h.015a1.3,1.3,0,0,1,1.193-.735c1.026,0,1.306.683,1.306,1.628V7.455h-.474V5.174c0-.66-.127-1.231-.907-1.231-.84,0-1.133.8-1.133,1.464V7.455h-.473Z" fill="#fff"/>
      <path id="Path_178" data-name="Path 178" d="M149.262,6.839h-.015a1.347,1.347,0,0,1-1.216.706c-1.087,0-1.26-.736-1.26-1.081,0-1.283,1.366-1.343,2.356-1.343h.09V4.926c0-.653-.232-.983-.87-.983a2.034,2.034,0,0,0-1.126.315V3.8a3.028,3.028,0,0,1,1.126-.262c.945,0,1.343.427,1.343,1.426V6.652a5.374,5.374,0,0,0,.038.8h-.466Zm-.045-1.313h-.135c-.818,0-1.793.083-1.793.923,0,.5.36.691.795.691,1.111,0,1.133-.968,1.133-1.381Z" fill="#fff"/>
      <path id="Path_179" data-name="Path 179" d="M151.723,4.033h-.772v-.4h.772V3.35c0-.8.03-1.613,1.014-1.613a1.1,1.1,0,0,1,.442.075l-.03.413a.832.832,0,0,0-.375-.083c-.646,0-.578.7-.578,1.156v.33h.863v.4H152.2V7.455h-.473Z" fill="#fff"/>
      <path id="Path_180" data-name="Path 180" d="M156.135,4.033h-.87V6.51c0,.345.128.63.511.63a1.1,1.1,0,0,0,.434-.09l.03.39a1.718,1.718,0,0,1-.578.105c-.839,0-.87-.578-.87-1.276V4.033h-.75v-.4h.75V2.7l.473-.165V3.628h.87Z" fill="#fff"/>
      <path id="Path_181" data-name="Path 181" d="M33.841,13.152a2.725,2.725,0,0,0-1.171-.225,2.057,2.057,0,0,0-2.123,2.259,2.035,2.035,0,0,0,2.123,2.258,2.593,2.593,0,0,0,1.171-.225l.03.45a2.821,2.821,0,0,1-1.2.225,2.5,2.5,0,0,1-2.641-2.708,2.526,2.526,0,0,1,2.641-2.709,3.4,3.4,0,0,1,1.2.195Z" fill="#fff"/>
      <path id="Path_182" data-name="Path 182" d="M37.09,13.888a1.787,1.787,0,0,1,1.786,2,1.8,1.8,0,1,1-3.572,0,1.787,1.787,0,0,1,1.786-2m0,3.6c.826,0,1.268-.713,1.268-1.6s-.442-1.6-1.268-1.6-1.268.713-1.268,1.6.443,1.6,1.268,1.6" fill="#fff"/>
      <path id="Path_183" data-name="Path 183" d="M40.354,14.878c0-.293,0-.593-.03-.9h.458v.683H40.8a1.213,1.213,0,0,1,1.238-.773c.945,0,1.305.631,1.305,1.471V17.8h-.472V15.478c0-.72-.255-1.185-.908-1.185-.863,0-1.133.757-1.133,1.395V17.8h-.473Z" fill="#fff"/>
      <path id="Path_184" data-name="Path 184" d="M45.435,14.383h-.773v-.405h.773V13.7c0-.8.03-1.613,1.013-1.613a1.1,1.1,0,0,1,.442.075l-.029.413a.837.837,0,0,0-.376-.083c-.645,0-.577.7-.577,1.156v.33h.862v.405h-.862v3.422h-.473Z" fill="#fff"/>
      <path id="Path_185" data-name="Path 185" d="M50.762,17.685a3.155,3.155,0,0,1-1.11.21c-1.268,0-1.741-.855-1.741-2,0-1.17.645-2,1.613-2,1.081,0,1.524.87,1.524,1.9v.241h-2.62a1.294,1.294,0,0,0,1.261,1.463,2.456,2.456,0,0,0,1.073-.286Zm-.232-2.063c0-.669-.27-1.33-.975-1.33a1.253,1.253,0,0,0-1.127,1.33ZM49.742,12.5h.593l-.946,1.081h-.345Z" fill="#fff"/>
      <path id="Path_186" data-name="Path 186" d="M55.564,17.805h-.473V17.2h-.015a1.226,1.226,0,0,1-1.193.7c-1.051,0-1.576-.87-1.576-2,0-1.163.45-2,1.576-2a1.291,1.291,0,0,1,1.193.735h.015V12.177h.473Zm-1.606-.315c.84,0,1.133-.9,1.133-1.6s-.293-1.6-1.133-1.6c-.9,0-1.133.856-1.133,1.6s.233,1.6,1.133,1.6" fill="#fff"/>
      <path id="Path_187" data-name="Path 187" d="M59.857,17.685a3.16,3.16,0,0,1-1.111.21c-1.268,0-1.741-.855-1.741-2,0-1.17.645-2,1.613-2,1.081,0,1.524.87,1.524,1.9v.241H57.523a1.293,1.293,0,0,0,1.26,1.463,2.464,2.464,0,0,0,1.074-.286Zm-.233-2.063c0-.669-.27-1.33-.975-1.33a1.252,1.252,0,0,0-1.126,1.33ZM58.836,12.5h.593l-.946,1.081h-.345Z" fill="#fff"/>
      <path id="Path_188" data-name="Path 188" d="M61.627,14.833a6.9,6.9,0,0,0-.03-.856h.473v.736h.015a1.134,1.134,0,0,1,.983-.825,1.385,1.385,0,0,1,.33.045v.5a1.242,1.242,0,0,0-.345-.045c-.751,0-.953.84-.953,1.531v1.891h-.473Z" fill="#fff"/>
      <path id="Path_189" data-name="Path 189" d="M66.91,17.189h-.015a1.346,1.346,0,0,1-1.216.7c-1.088,0-1.26-.735-1.26-1.081,0-1.282,1.366-1.342,2.356-1.342h.09v-.2c0-.652-.233-.982-.871-.982a2.032,2.032,0,0,0-1.125.314V14.15a3,3,0,0,1,1.125-.263c.946,0,1.344.428,1.344,1.426V17a5.5,5.5,0,0,0,.037.8H66.91Zm-.045-1.313H66.73c-.818,0-1.794.083-1.794.923,0,.5.361.69.8.69,1.11,0,1.133-.968,1.133-1.381Z" fill="#fff"/>
      <path id="Path_190" data-name="Path 190" d="M70.7,14.383h-.871V16.86c0,.345.128.63.511.63a1.1,1.1,0,0,0,.435-.09l.03.39a1.723,1.723,0,0,1-.578.1c-.84,0-.87-.578-.87-1.276V14.383h-.751v-.405h.751v-.923l.472-.165v1.088H70.7Z" fill="#fff"/>
      <path id="Path_191" data-name="Path 191" d="M72.605,12.957h-.473v-.631h.473Zm-.473,1.021h.473v3.827h-.473Z" fill="#fff"/>
      <path id="Path_192" data-name="Path 192" d="M75.876,13.888a1.787,1.787,0,0,1,1.786,2,1.8,1.8,0,1,1-3.572,0,1.787,1.787,0,0,1,1.786-2m0,3.6c.826,0,1.268-.713,1.268-1.6s-.442-1.6-1.268-1.6-1.268.713-1.268,1.6.443,1.6,1.268,1.6" fill="#fff"/>
      <path id="Path_193" data-name="Path 193" d="M79.141,14.878c0-.293,0-.593-.03-.9h.458v.683h.015a1.213,1.213,0,0,1,1.238-.773c.945,0,1.305.631,1.305,1.471V17.8h-.472V15.478c0-.72-.255-1.185-.908-1.185-.864,0-1.133.757-1.133,1.395V17.8h-.473Z" fill="#fff"/>
      <path id="Path_194" data-name="Path 194" d="M86.2,17.25a2.244,2.244,0,0,0,1,.24c.45,0,.848-.248.848-.684,0-.908-1.839-.764-1.839-1.875,0-.758.616-1.043,1.246-1.043a2.97,2.97,0,0,1,.945.173l-.045.412a2.241,2.241,0,0,0-.847-.181c-.488,0-.826.151-.826.639,0,.713,1.884.623,1.884,1.875,0,.812-.759,1.089-1.336,1.089a2.9,2.9,0,0,1-1.073-.18Z" fill="#fff"/>
      <path id="Path_195" data-name="Path 195" d="M92.985,16.9c0,.292,0,.593.03.9h-.458v-.682h-.014a1.216,1.216,0,0,1-1.239.772c-.945,0-1.305-.63-1.305-1.47V13.977h.472V16.3c0,.721.256,1.186.909,1.186.862,0,1.132-.758,1.132-1.4V13.977h.473Z" fill="#fff"/>
      <path id="Path_196" data-name="Path 196" d="M95.228,12.957h-.473v-.631h.473Zm-.472,1.021h.473v3.827h-.473Z" fill="#fff"/>
      <path id="Path_197" data-name="Path 197" d="M96.714,17.25a2.244,2.244,0,0,0,1,.24c.45,0,.848-.248.848-.684,0-.908-1.839-.764-1.839-1.875,0-.758.616-1.043,1.246-1.043a2.97,2.97,0,0,1,.945.173l-.045.412a2.241,2.241,0,0,0-.847-.181c-.488,0-.826.151-.826.639,0,.713,1.883.623,1.883,1.875,0,.812-.758,1.089-1.335,1.089a2.9,2.9,0,0,1-1.073-.18Z" fill="#fff"/>
      <path id="Path_198" data-name="Path 198" d="M100.219,17.25a2.244,2.244,0,0,0,1,.24c.45,0,.848-.248.848-.684,0-.908-1.839-.764-1.839-1.875,0-.758.616-1.043,1.246-1.043a2.97,2.97,0,0,1,.945.173l-.045.412a2.241,2.241,0,0,0-.847-.181c-.488,0-.826.151-.826.639,0,.713,1.884.623,1.884,1.875,0,.812-.759,1.089-1.336,1.089a2.9,2.9,0,0,1-1.073-.18Z" fill="#fff"/>
      <path id="Path_199" data-name="Path 199" d="M106.582,17.684a3.116,3.116,0,0,1-1.111.21c-1.269,0-1.742-.855-1.742-2,0-1.17.647-2,1.615-2,1.08,0,1.523.87,1.523,1.9v.24h-2.619a1.293,1.293,0,0,0,1.261,1.464,2.456,2.456,0,0,0,1.073-.286Zm-.233-2.063c0-.668-.27-1.328-.975-1.328a1.251,1.251,0,0,0-1.126,1.328Z" fill="#fff"/>
      <path id="Path_200" data-name="Path 200" d="M33.841,23.5a2.725,2.725,0,0,0-1.171-.225,2.057,2.057,0,0,0-2.123,2.259,2.035,2.035,0,0,0,2.123,2.258,2.593,2.593,0,0,0,1.171-.225l.03.45a2.821,2.821,0,0,1-1.2.225,2.5,2.5,0,0,1-2.641-2.708,2.526,2.526,0,0,1,2.641-2.709,3.379,3.379,0,0,1,1.2.195Z" fill="#fff"/>
      <path id="Path_201" data-name="Path 201" d="M37.09,24.238a1.787,1.787,0,0,1,1.786,2,1.8,1.8,0,1,1-3.572,0,1.787,1.787,0,0,1,1.786-2m0,3.6c.826,0,1.268-.713,1.268-1.6s-.442-1.6-1.268-1.6-1.268.713-1.268,1.6.443,1.6,1.268,1.6" fill="#fff"/>
      <path id="Path_202" data-name="Path 202" d="M40.354,25.229c0-.293,0-.593-.03-.9h.458v.684H40.8a1.213,1.213,0,0,1,1.238-.774c.945,0,1.305.631,1.305,1.471v2.446h-.472V25.828c0-.719-.255-1.184-.908-1.184-.863,0-1.133.757-1.133,1.4v2.115h-.473Z" fill="#fff"/>
      <path id="Path_203" data-name="Path 203" d="M45.435,24.733h-.773v-.405h.773V24.05c0-.8.03-1.613,1.013-1.613a1.1,1.1,0,0,1,.442.075l-.029.413a.837.837,0,0,0-.376-.083c-.645,0-.577.7-.577,1.156v.33h.862v.405h-.862v3.422h-.473Z" fill="#fff"/>
      <path id="Path_204" data-name="Path 204" d="M50.762,28.034a3.116,3.116,0,0,1-1.111.21c-1.268,0-1.741-.855-1.741-2,0-1.17.646-2,1.614-2,1.08,0,1.523.87,1.523,1.9v.24H48.428a1.294,1.294,0,0,0,1.261,1.464,2.456,2.456,0,0,0,1.073-.286Zm-.233-2.063c0-.668-.27-1.328-.975-1.328a1.251,1.251,0,0,0-1.126,1.328Z" fill="#fff"/>
      <path id="Path_205" data-name="Path 205" d="M55.564,28.155h-.473v-.608h-.015a1.226,1.226,0,0,1-1.193.7c-1.051,0-1.576-.87-1.576-2,0-1.163.45-2,1.576-2a1.291,1.291,0,0,1,1.193.735h.015V22.527h.473Zm-1.606-.315c.84,0,1.133-.9,1.133-1.6s-.293-1.6-1.133-1.6c-.9,0-1.133.856-1.133,1.6s.233,1.6,1.133,1.6" fill="#fff"/>
      <path id="Path_206" data-name="Path 206" d="M59.856,28.034a3.116,3.116,0,0,1-1.111.21c-1.268,0-1.741-.855-1.741-2,0-1.17.646-2,1.614-2,1.08,0,1.523.87,1.523,1.9v.24H57.522a1.294,1.294,0,0,0,1.261,1.464,2.456,2.456,0,0,0,1.073-.286Zm-.233-2.063c0-.668-.27-1.328-.975-1.328a1.251,1.251,0,0,0-1.126,1.328Z" fill="#fff"/>
      <path id="Path_207" data-name="Path 207" d="M61.627,25.183a6.9,6.9,0,0,0-.03-.856h.473v.736h.015a1.134,1.134,0,0,1,.983-.825,1.385,1.385,0,0,1,.33.045v.495a1.242,1.242,0,0,0-.345-.045c-.751,0-.953.841-.953,1.531v1.891h-.473Z" fill="#fff"/>
      <path id="Path_208" data-name="Path 208" d="M66.91,27.539h-.015a1.346,1.346,0,0,1-1.216.7c-1.088,0-1.26-.735-1.26-1.08,0-1.283,1.366-1.343,2.356-1.343h.09v-.195c0-.653-.233-.983-.871-.983a2.033,2.033,0,0,0-1.125.315V24.5a3.023,3.023,0,0,1,1.125-.262c.946,0,1.344.427,1.344,1.425v1.689a5.523,5.523,0,0,0,.037.8H66.91Zm-.045-1.313H66.73c-.818,0-1.794.083-1.794.923,0,.5.361.691.8.691,1.11,0,1.133-.969,1.133-1.381Z" fill="#fff"/>
      <path id="Path_209" data-name="Path 209" d="M68.7,27.757,71,24.733H68.786v-.406h2.761v.406l-2.3,3.016h2.3v.406H68.7Z" fill="#fff"/>
      <path id="Path_210" data-name="Path 210" d="M73.438,23.307h-.473v-.63h.473Zm-.473,1.02h.473v3.827h-.473Z" fill="#fff"/>
      <path id="Path_211" data-name="Path 211" d="M76.709,24.238a1.787,1.787,0,0,1,1.786,2,1.8,1.8,0,1,1-3.572,0,1.787,1.787,0,0,1,1.786-2m0,3.6c.826,0,1.268-.713,1.268-1.6s-.442-1.6-1.268-1.6-1.268.713-1.268,1.6.443,1.6,1.268,1.6" fill="#fff"/>
      <path id="Path_212" data-name="Path 212" d="M79.974,25.229c0-.293,0-.593-.03-.9H80.4v.684h.015a1.213,1.213,0,0,1,1.238-.774c.945,0,1.305.631,1.305,1.471v2.446h-.472V25.828c0-.719-.255-1.184-.908-1.184-.864,0-1.133.757-1.133,1.4v2.115h-.473Z" fill="#fff"/>
      <path id="Path_213" data-name="Path 213" d="M87.3,28.034a3.116,3.116,0,0,1-1.111.21c-1.268,0-1.741-.855-1.741-2,0-1.17.646-2,1.614-2,1.08,0,1.523.87,1.523,1.9v.24H84.963a1.294,1.294,0,0,0,1.261,1.464,2.456,2.456,0,0,0,1.073-.286Zm-.233-2.063c0-.668-.27-1.328-.975-1.328a1.251,1.251,0,0,0-1.126,1.328Z" fill="#fff"/>
      <path id="Path_214" data-name="Path 214" d="M91.575,27.487a2.061,2.061,0,0,0,1.155.308,1.045,1.045,0,0,0,1.178-1.073c0-1.029-2.4-1.156-2.4-2.529a1.474,1.474,0,0,1,1.659-1.366A3.131,3.131,0,0,1,94.194,23l-.083.473a2.125,2.125,0,0,0-.953-.2c-.54,0-1.133.226-1.133.9,0,1.051,2.4,1.058,2.4,2.589a1.536,1.536,0,0,1-1.718,1.478,2.993,2.993,0,0,1-1.186-.225Z" fill="#fff"/>
      <path id="Path_215" data-name="Path 215" d="M97.329,28.155h-.555l-1.3-3.827h.518l1.059,3.309h.014l1.111-3.309h.5Z" fill="#fff"/>
      <path id="Path_216" data-name="Path 216" d="M100.391,23.307h-.473v-.63h.473Zm-.473,1.02h.473v3.827h-.473Z" fill="#fff"/>
      <path id="Path_217" data-name="Path 217" d="M101.817,27.757l2.3-3.024h-2.214v-.406h2.761v.406l-2.3,3.016h2.3v.406h-2.851Z" fill="#fff"/>
      <path id="Path_218" data-name="Path 218" d="M105.734,27.757l2.3-3.024h-2.214v-.406h2.761v.406l-2.3,3.016h2.3v.406h-2.851Z" fill="#fff"/>
      <path id="Path_219" data-name="Path 219" d="M112.569,28.034a3.116,3.116,0,0,1-1.111.21c-1.268,0-1.741-.855-1.741-2,0-1.17.646-2,1.614-2,1.08,0,1.523.87,1.523,1.9v.24h-2.619A1.294,1.294,0,0,0,111.5,27.84a2.456,2.456,0,0,0,1.073-.286Zm-.233-2.063c0-.668-.27-1.328-.975-1.328a1.251,1.251,0,0,0-1.126,1.328Z" fill="#fff"/>
      <path id="Path_220" data-name="Path 220" d="M114.34,25.183a6.9,6.9,0,0,0-.03-.856h.473v.736h.014a1.137,1.137,0,0,1,.984-.825,1.385,1.385,0,0,1,.33.045v.495a1.242,1.242,0,0,0-.345-.045c-.751,0-.953.841-.953,1.531v1.891h-.473Z" fill="#fff"/>
      <path id="Path_221" data-name="Path 221" d="M119.623,27.539h-.015a1.346,1.346,0,0,1-1.216.7c-1.088,0-1.26-.735-1.26-1.08,0-1.283,1.365-1.343,2.356-1.343h.09v-.195c0-.653-.233-.983-.871-.983a2.033,2.033,0,0,0-1.125.315V24.5a3.023,3.023,0,0,1,1.125-.262c.946,0,1.344.427,1.344,1.425v1.689a5.524,5.524,0,0,0,.037.8h-.465Zm-.045-1.313h-.135c-.818,0-1.794.083-1.794.923,0,.5.361.691.8.691,1.11,0,1.133-.969,1.133-1.381Z" fill="#fff"/>
      <path id="Path_222" data-name="Path 222" d="M33.841,33.852a2.725,2.725,0,0,0-1.171-.225,2.057,2.057,0,0,0-2.123,2.259,2.035,2.035,0,0,0,2.123,2.258,2.593,2.593,0,0,0,1.171-.225l.03.45a2.821,2.821,0,0,1-1.2.225,2.5,2.5,0,0,1-2.641-2.708,2.526,2.526,0,0,1,2.641-2.709,3.379,3.379,0,0,1,1.2.2Z" fill="#fff"/>
      <path id="Path_223" data-name="Path 223" d="M37.09,34.587a1.787,1.787,0,0,1,1.786,2,1.8,1.8,0,1,1-3.572,0,1.787,1.787,0,0,1,1.786-2m0,3.6c.826,0,1.268-.713,1.268-1.6s-.442-1.6-1.268-1.6-1.268.713-1.268,1.6.443,1.6,1.268,1.6" fill="#fff"/>
      <path id="Path_224" data-name="Path 224" d="M40.354,35.578c0-.293,0-.593-.03-.9h.458v.683H40.8a1.213,1.213,0,0,1,1.238-.773c.945,0,1.305.631,1.305,1.471V38.5h-.472V36.178c0-.72-.255-1.185-.908-1.185-.863,0-1.133.757-1.133,1.4V38.5h-.473Z" fill="#fff"/>
      <path id="Path_225" data-name="Path 225" d="M45.435,35.083h-.773v-.4h.773V34.4c0-.8.03-1.614,1.013-1.614a1.114,1.114,0,0,1,.442.075l-.029.414a.837.837,0,0,0-.376-.083c-.645,0-.577.7-.577,1.155v.331h.862v.4h-.862v3.422h-.473Z" fill="#fff"/>
      <path id="Path_226" data-name="Path 226" d="M50.762,38.385a3.137,3.137,0,0,1-1.111.209c-1.268,0-1.741-.855-1.741-2,0-1.17.646-2,1.614-2,1.08,0,1.523.87,1.523,1.9v.24H48.428a1.294,1.294,0,0,0,1.261,1.464,2.456,2.456,0,0,0,1.073-.286Zm-.233-2.064c0-.668-.27-1.328-.975-1.328a1.251,1.251,0,0,0-1.126,1.328Z" fill="#fff"/>
      <path id="Path_227" data-name="Path 227" d="M55.564,38.5h-.473V37.9h-.015a1.226,1.226,0,0,1-1.193.7c-1.051,0-1.576-.87-1.576-2,0-1.163.45-2,1.576-2a1.291,1.291,0,0,1,1.193.735h.015V32.876h.473Zm-1.606-.315c.84,0,1.133-.9,1.133-1.6s-.293-1.6-1.133-1.6c-.9,0-1.133.856-1.133,1.6s.233,1.6,1.133,1.6" fill="#fff"/>
      <path id="Path_228" data-name="Path 228" d="M59.856,38.385a3.137,3.137,0,0,1-1.111.209c-1.268,0-1.741-.855-1.741-2,0-1.17.646-2,1.614-2,1.08,0,1.523.87,1.523,1.9v.24H57.522a1.294,1.294,0,0,0,1.261,1.464,2.456,2.456,0,0,0,1.073-.286Zm-.233-2.064c0-.668-.27-1.328-.975-1.328a1.251,1.251,0,0,0-1.126,1.328Z" fill="#fff"/>
      <path id="Path_229" data-name="Path 229" d="M61.627,35.533a6.871,6.871,0,0,0-.03-.855h.473v.735h.015a1.134,1.134,0,0,1,.983-.825,1.385,1.385,0,0,1,.33.045v.495a1.242,1.242,0,0,0-.345-.045c-.751,0-.953.841-.953,1.531v1.891h-.473Z" fill="#fff"/>
      <path id="Path_230" data-name="Path 230" d="M66.91,37.889h-.015a1.347,1.347,0,0,1-1.216.706c-1.088,0-1.26-.736-1.26-1.081,0-1.283,1.366-1.343,2.356-1.343h.09v-.195c0-.653-.233-.983-.871-.983a2.033,2.033,0,0,0-1.125.315V34.85a3.023,3.023,0,0,1,1.125-.262c.946,0,1.344.427,1.344,1.426V37.7a5.516,5.516,0,0,0,.037.8H66.91Zm-.045-1.313H66.73c-.818,0-1.794.083-1.794.923,0,.5.361.691.8.691,1.11,0,1.133-.968,1.133-1.381Z" fill="#fff"/>
      <path id="Path_231" data-name="Path 231" d="M68.7,38.107,71,35.083H68.786v-.406h2.761v.406l-2.3,3.016h2.3v.4H68.7Z" fill="#fff"/>
      <path id="Path_232" data-name="Path 232" d="M73.438,33.657h-.473v-.63h.473Zm-.473,1.021h.473v3.827h-.473Z" fill="#fff"/>
      <path id="Path_233" data-name="Path 233" d="M78.2,37.6c0,.292,0,.593.03.9h-.458v-.682H77.76a1.215,1.215,0,0,1-1.239.772c-.945,0-1.305-.63-1.305-1.47V34.677h.472V37c0,.721.256,1.186.909,1.186.863,0,1.132-.758,1.132-1.4V34.677H78.2Z" fill="#fff"/>
      <path id="Path_234" data-name="Path 234" d="M79.974,35.578c0-.293,0-.593-.03-.9H80.4v.683h.015a1.213,1.213,0,0,1,1.238-.773c.945,0,1.305.631,1.305,1.471V38.5h-.472V36.178c0-.72-.255-1.185-.908-1.185-.864,0-1.133.757-1.133,1.4V38.5h-.473Z" fill="#fff"/>
      <path id="Path_235" data-name="Path 235" d="M87.035,37.949a2.244,2.244,0,0,0,1,.24c.45,0,.848-.248.848-.683,0-.908-1.839-.765-1.839-1.876,0-.758.615-1.043,1.246-1.043a3,3,0,0,1,.945.173l-.045.413a2.22,2.22,0,0,0-.847-.18c-.488,0-.826.149-.826.637,0,.713,1.883.623,1.883,1.876,0,.811-.758,1.088-1.335,1.088a2.88,2.88,0,0,1-1.073-.18Z" fill="#fff"/>
      <path id="Path_236" data-name="Path 236" d="M92.16,38.5H91.6l-1.3-3.827h.518l1.059,3.309H91.9l1.111-3.309h.5Z" fill="#fff"/>
      <path id="Path_237" data-name="Path 237" d="M95.221,33.657h-.473v-.63h.473Zm-.473,1.021h.473v3.827h-.473Z" fill="#fff"/>
      <path id="Path_238" data-name="Path 238" d="M96.647,38.107l2.3-3.024H96.737v-.406H99.5v.406l-2.3,3.016h2.3v.4H96.647Z" fill="#fff"/>
      <path id="Path_239" data-name="Path 239" d="M100.916,35.533a6.871,6.871,0,0,0-.03-.855h.473v.735h.014a1.137,1.137,0,0,1,.984-.825,1.385,1.385,0,0,1,.33.045v.495a1.242,1.242,0,0,0-.345-.045c-.751,0-.953.841-.953,1.531v1.891h-.473Z" fill="#fff"/>
      <path id="Path_240" data-name="Path 240" d="M106.2,37.889h-.015a1.347,1.347,0,0,1-1.216.706c-1.088,0-1.26-.736-1.26-1.081,0-1.283,1.365-1.343,2.356-1.343h.09v-.195c0-.653-.233-.983-.871-.983a2.029,2.029,0,0,0-1.125.315V34.85a3.023,3.023,0,0,1,1.125-.262c.946,0,1.344.427,1.344,1.426V37.7a5.516,5.516,0,0,0,.037.8H106.2Zm-.045-1.313h-.135c-.818,0-1.794.083-1.794.923,0,.5.361.691.8.691,1.11,0,1.133-.968,1.133-1.381Z" fill="#fff"/>
      <path id="Path_241" data-name="Path 241" d="M30.247,53.967h2.566v.45H30.765v1.869h1.943v.45H30.765v2.019H32.9v.45H30.247Z" fill="#fff"/>
      <path id="Path_242" data-name="Path 242" d="M35,54.357h-.473v-.63H35Zm-.473,1.021H35v3.827h-.473Z" fill="#fff"/>
      <path id="Path_243" data-name="Path 243" d="M39.814,59.205h-.473V58.6h-.015a1.226,1.226,0,0,1-1.193.7c-1.051,0-1.576-.87-1.576-2,0-1.163.45-2,1.576-2a1.291,1.291,0,0,1,1.193.735h.015V53.577h.473Zm-1.606-.315c.84,0,1.133-.9,1.133-1.6s-.293-1.6-1.133-1.6c-.9,0-1.133.856-1.133,1.6s.233,1.6,1.133,1.6" fill="#fff"/>
      <path id="Path_244" data-name="Path 244" d="M44.571,58.889c0,1.066-.48,1.936-1.793,1.936a3.966,3.966,0,0,1-1.156-.2l.038-.472a2.592,2.592,0,0,0,1.125.27c1.216,0,1.321-.886,1.321-1.966h-.015a1.186,1.186,0,0,1-1.163.75c-1.223,0-1.614-1.065-1.614-1.913,0-1.163.451-2,1.576-2a1.264,1.264,0,0,1,1.193.526H44.1v-.436h.473Zm-1.636-.09c.855,0,1.163-.811,1.163-1.508,0-.923-.27-1.6-1.133-1.6-.9,0-1.133.856-1.133,1.6s.3,1.508,1.1,1.508" fill="#fff"/>
      <path id="Path_245" data-name="Path 245" d="M48.864,59.085a3.137,3.137,0,0,1-1.111.209c-1.268,0-1.741-.855-1.741-2,0-1.17.646-2,1.614-2,1.08,0,1.523.87,1.523,1.9v.24H46.53a1.294,1.294,0,0,0,1.261,1.464,2.469,2.469,0,0,0,1.073-.285Zm-.233-2.064c0-.668-.27-1.328-.975-1.328a1.251,1.251,0,0,0-1.126,1.328Z" fill="#fff"/>
      <path id="Path_246" data-name="Path 246" d="M50.634,56.278c0-.293,0-.593-.03-.9h.458v.683h.015a1.213,1.213,0,0,1,1.238-.773c.945,0,1.305.631,1.305,1.471V59.2h-.472V56.878c0-.72-.255-1.186-.908-1.186-.863,0-1.133.758-1.133,1.4V59.2h-.473Z" fill="#fff"/>
      <path id="Path_247" data-name="Path 247" d="M56.885,55.288a2.017,2.017,0,1,1-1.786,2,1.787,1.787,0,0,1,1.786-2m0,3.6c.825,0,1.268-.713,1.268-1.6s-.443-1.6-1.268-1.6-1.268.713-1.268,1.6.443,1.6,1.268,1.6m-.923-4.78h.563v.63h-.563Zm1.283,0h.562v.63h-.562Z" fill="#fff"/>
      <path id="Path_248" data-name="Path 248" d="M59.856,58.649a2.244,2.244,0,0,0,1,.24c.45,0,.848-.248.848-.683,0-.908-1.839-.765-1.839-1.876,0-.758.616-1.043,1.246-1.043a3,3,0,0,1,.945.173l-.045.413a2.222,2.222,0,0,0-.847-.181c-.488,0-.826.15-.826.638,0,.713,1.884.623,1.884,1.876,0,.811-.759,1.088-1.336,1.088a2.879,2.879,0,0,1-1.073-.18Z" fill="#fff"/>
      <path id="Path_249" data-name="Path 249" d="M63.361,58.649a2.244,2.244,0,0,0,1,.24c.45,0,.848-.248.848-.683,0-.908-1.839-.765-1.839-1.876,0-.758.616-1.043,1.246-1.043a3,3,0,0,1,.945.173l-.045.413a2.222,2.222,0,0,0-.847-.181c-.488,0-.826.15-.826.638,0,.713,1.883.623,1.883,1.876,0,.811-.758,1.088-1.335,1.088a2.879,2.879,0,0,1-1.073-.18Z" fill="#fff"/>
      <path id="Path_250" data-name="Path 250" d="M67.63,54.357h-.473v-.63h.473Zm-.473,1.021h.473v3.827h-.473Z" fill="#fff"/>
      <path id="Path_251" data-name="Path 251" d="M69.116,58.649a2.244,2.244,0,0,0,1,.24c.45,0,.848-.248.848-.683,0-.908-1.839-.765-1.839-1.876,0-.758.616-1.043,1.246-1.043a3,3,0,0,1,.945.173l-.045.413a2.222,2.222,0,0,0-.847-.181c-.488,0-.826.15-.826.638,0,.713,1.884.623,1.884,1.876,0,.811-.759,1.088-1.336,1.088a2.879,2.879,0,0,1-1.073-.18Z" fill="#fff"/>
      <path id="Path_252" data-name="Path 252" d="M75.4,55.888a2.178,2.178,0,0,0-.818-.195,1.425,1.425,0,0,0-1.441,1.6,1.451,1.451,0,0,0,1.388,1.6,2.459,2.459,0,0,0,.864-.173l.045.443a2.85,2.85,0,0,1-.983.135,1.814,1.814,0,0,1-1.831-2,1.854,1.854,0,0,1,1.891-2,2.872,2.872,0,0,1,.923.15Z" fill="#fff"/>
      <path id="Path_253" data-name="Path 253" d="M76.829,53.577H77.3v2.446h.015a1.3,1.3,0,0,1,1.193-.735c1.028,0,1.305.683,1.305,1.628v2.289h-.472V56.924c0-.66-.128-1.231-.907-1.231-.841,0-1.134.8-1.134,1.464v2.048h-.473Z" fill="#fff"/>
      <path id="Path_254" data-name="Path 254" d="M84.153,59.085a3.137,3.137,0,0,1-1.111.209c-1.268,0-1.741-.855-1.741-2,0-1.17.646-2,1.614-2,1.08,0,1.523.87,1.523,1.9v.24H81.819A1.294,1.294,0,0,0,83.08,58.89a2.469,2.469,0,0,0,1.073-.285Zm-.233-2.064c0-.668-.27-1.328-.975-1.328a1.251,1.251,0,0,0-1.126,1.328Z" fill="#fff"/>
      <path id="Path_255" data-name="Path 255" d="M85.631,58.649a2.244,2.244,0,0,0,1,.24c.45,0,.848-.248.848-.683,0-.908-1.839-.765-1.839-1.876,0-.758.616-1.043,1.246-1.043a3,3,0,0,1,.945.173l-.045.413a2.222,2.222,0,0,0-.847-.181c-.488,0-.826.15-.826.638,0,.713,1.883.623,1.883,1.876,0,.811-.758,1.088-1.335,1.088a2.879,2.879,0,0,1-1.073-.18Z" fill="#fff"/>
      <path id="Path_256" data-name="Path 256" d="M92.107,53.966h1.3a2.342,2.342,0,0,1,2.619,2.612c0,1.9-1.268,2.626-3,2.626h-.915Zm.518,4.788h.428c1.486,0,2.453-.6,2.453-2.206a1.9,1.9,0,0,0-2.123-2.131h-.758Z" fill="#fff"/>
      <path id="Path_257" data-name="Path 257" d="M100.256,59.085a3.137,3.137,0,0,1-1.111.209c-1.268,0-1.741-.855-1.741-2,0-1.17.646-2,1.614-2,1.08,0,1.523.87,1.523,1.9v.24H97.922a1.294,1.294,0,0,0,1.261,1.464,2.469,2.469,0,0,0,1.073-.285Zm-.233-2.064c0-.668-.27-1.328-.975-1.328a1.251,1.251,0,0,0-1.126,1.328Z" fill="#fff"/>
      <path id="Path_258" data-name="Path 258" d="M101.982,55.378h.472l-.03.7h.015a1.321,1.321,0,0,1,1.223-.788c1.126,0,1.576.84,1.576,2,0,1.134-.525,2-1.576,2a1.187,1.187,0,0,1-1.193-.743h-.015v2.229h-.472Zm1.6.315c-.84,0-1.133.9-1.133,1.6s.293,1.6,1.133,1.6c.9,0,1.133-.856,1.133-1.6s-.232-1.6-1.133-1.6" fill="#fff"/>
      <path id="Path_259" data-name="Path 259" d="M108.983,58.589h-.015a1.347,1.347,0,0,1-1.216.706c-1.088,0-1.26-.736-1.26-1.081,0-1.283,1.365-1.343,2.356-1.343h.09v-.195c0-.653-.233-.983-.871-.983a2.029,2.029,0,0,0-1.125.315V55.55a3.023,3.023,0,0,1,1.125-.262c.946,0,1.344.427,1.344,1.426V58.4a5.517,5.517,0,0,0,.037.8h-.465Zm-.045-1.313H108.8c-.818,0-1.794.083-1.794.923,0,.5.361.691.8.691,1.11,0,1.133-.968,1.133-1.381Z" fill="#fff"/>
      <path id="Path_260" data-name="Path 260" d="M111.121,56.233a6.871,6.871,0,0,0-.03-.855h.473v.735h.015a1.136,1.136,0,0,1,.984-.825,1.392,1.392,0,0,1,.33.045v.495a1.253,1.253,0,0,0-.345-.045c-.751,0-.954.841-.954,1.531v1.891h-.473Z" fill="#fff"/>
      <path id="Path_261" data-name="Path 261" d="M115.856,55.783h-.871V58.26c0,.345.128.63.511.63a1.1,1.1,0,0,0,.435-.09l.03.39a1.723,1.723,0,0,1-.578.1c-.84,0-.87-.578-.87-1.276V55.783h-.751v-.405h.751v-.923l.472-.165v1.088h.871Z" fill="#fff"/>
      <path id="Path_262" data-name="Path 262" d="M119.856,59.085a3.137,3.137,0,0,1-1.111.209c-1.268,0-1.741-.855-1.741-2,0-1.17.646-2,1.614-2,1.08,0,1.523.87,1.523,1.9v.24h-2.619a1.293,1.293,0,0,0,1.261,1.464,2.47,2.47,0,0,0,1.073-.285Zm-.233-2.064c0-.668-.27-1.328-.975-1.328a1.251,1.251,0,0,0-1.126,1.328Z" fill="#fff"/>
      <path id="Path_263" data-name="Path 263" d="M126.249,59.205V56.661c0-.54-.2-.968-.811-.968-.518,0-1.028.443-1.028,1.4v2.116h-.472V56.661c0-.54-.2-.968-.811-.968-.518,0-1.028.443-1.028,1.4v2.116h-.473V56.279c0-.293,0-.593-.029-.9h.457v.645l.015.008a1.2,1.2,0,0,1,1.193-.743.964.964,0,0,1,1.013.811h.016a1.283,1.283,0,0,1,1.222-.811,1.168,1.168,0,0,1,1.209,1.283v2.634Z" fill="#fff"/>
      <path id="Path_264" data-name="Path 264" d="M131.029,59.085a3.137,3.137,0,0,1-1.111.209c-1.268,0-1.741-.855-1.741-2,0-1.17.646-2,1.614-2,1.08,0,1.523.87,1.523,1.9v.24H128.7a1.294,1.294,0,0,0,1.261,1.464,2.47,2.47,0,0,0,1.073-.285Zm-.233-2.064c0-.668-.27-1.328-.975-1.328a1.251,1.251,0,0,0-1.126,1.328Z" fill="#fff"/>
      <path id="Path_265" data-name="Path 265" d="M132.8,56.278c0-.293,0-.593-.03-.9h.458v.683h.015a1.213,1.213,0,0,1,1.238-.773c.946,0,1.305.631,1.305,1.471V59.2h-.472V56.878c0-.72-.255-1.186-.908-1.186-.863,0-1.133.758-1.133,1.4V59.2H132.8Z" fill="#fff"/>
      <path id="Path_266" data-name="Path 266" d="M139.207,55.783h-.871V58.26c0,.345.128.63.511.63a1.1,1.1,0,0,0,.435-.09l.03.39a1.723,1.723,0,0,1-.578.1c-.84,0-.87-.578-.87-1.276V55.783h-.751v-.405h.751v-.923l.472-.165v1.088h.871Z" fill="#fff"/>
      <path id="Path_267" data-name="Path 267" d="M146.343,59.205h-.472V58.6h-.015a1.226,1.226,0,0,1-1.193.7c-1.051,0-1.576-.87-1.576-2,0-1.163.45-2,1.576-2a1.29,1.29,0,0,1,1.193.735h.015V53.577h.472Zm-1.6-.315c.841,0,1.133-.9,1.133-1.6s-.292-1.6-1.133-1.6c-.9,0-1.133.856-1.133,1.6s.233,1.6,1.133,1.6" fill="#fff"/>
      <path id="Path_268" data-name="Path 268" d="M150.636,59.085a3.131,3.131,0,0,1-1.11.209c-1.268,0-1.741-.855-1.741-2,0-1.17.645-2,1.613-2,1.081,0,1.524.87,1.524,1.9v.24H148.3a1.294,1.294,0,0,0,1.261,1.464,2.466,2.466,0,0,0,1.073-.285Zm-.232-2.064c0-.668-.271-1.328-.976-1.328a1.251,1.251,0,0,0-1.126,1.328Z" fill="#fff"/>
      <path id="Path_269" data-name="Path 269" d="M152.114,58.649a2.247,2.247,0,0,0,1,.24c.45,0,.849-.248.849-.683,0-.908-1.839-.765-1.839-1.876,0-.758.615-1.043,1.246-1.043a3.008,3.008,0,0,1,.945.173l-.045.413a2.23,2.23,0,0,0-.848-.181c-.488,0-.826.15-.826.638,0,.713,1.884.623,1.884,1.876,0,.811-.758,1.088-1.336,1.088a2.886,2.886,0,0,1-1.073-.18Z" fill="#fff"/>
      <rect id="Rectangle_17" data-name="Rectangle 17" width="0.518" height="5.238" transform="translate(158.568 53.966)" fill="#fff"/>
      <path id="Path_270" data-name="Path 270" d="M160.833,56.278c0-.293,0-.593-.03-.9h.458v.683h.014a1.217,1.217,0,0,1,1.239-.773c.945,0,1.3.631,1.3,1.471V59.2h-.472V56.878c0-.72-.255-1.186-.909-1.186-.862,0-1.132.758-1.132,1.4V59.2h-.473Z" fill="#fff"/>
      <path id="Path_271" data-name="Path 271" d="M165.59,56.278c0-.293,0-.593-.03-.9h.458v.683h.014a1.217,1.217,0,0,1,1.239-.773c.945,0,1.305.631,1.305,1.471V59.2H168.1V56.878c0-.72-.255-1.186-.909-1.186-.862,0-1.132.758-1.132,1.4V59.2h-.473Z" fill="#fff"/>
      <path id="Path_272" data-name="Path 272" d="M172.914,59.085a3.131,3.131,0,0,1-1.11.209c-1.268,0-1.741-.855-1.741-2,0-1.17.645-2,1.613-2,1.081,0,1.524.87,1.524,1.9v.24h-2.62a1.294,1.294,0,0,0,1.261,1.464,2.466,2.466,0,0,0,1.073-.285Zm-.232-2.064c0-.668-.27-1.328-.976-1.328a1.251,1.251,0,0,0-1.126,1.328Z" fill="#fff"/>
      <path id="Path_273" data-name="Path 273" d="M174.685,56.233a6.871,6.871,0,0,0-.03-.855h.472v.735h.016a1.134,1.134,0,0,1,.983-.825,1.37,1.37,0,0,1,.33.045v.495a1.237,1.237,0,0,0-.345-.045c-.75,0-.953.841-.953,1.531v1.891h-.473Z" fill="#fff"/>
      <path id="Path_274" data-name="Path 274" d="M177.9,56.278c0-.293,0-.593-.03-.9h.458v.683h.014a1.217,1.217,0,0,1,1.239-.773c.945,0,1.305.631,1.305,1.471V59.2h-.472V56.878c0-.72-.255-1.186-.909-1.186-.862,0-1.132.758-1.132,1.4V59.2H177.9Z" fill="#fff"/>
      <path id="Path_275" data-name="Path 275" d="M185.384,53.967h2.566v.45H185.9v1.869h1.943v.45H185.9v2.019h2.138v.45h-2.656Z" fill="#fff"/>
      <path id="Path_276" data-name="Path 276" d="M189.676,53.966h1.3a2.342,2.342,0,0,1,2.619,2.612c0,1.9-1.268,2.626-3,2.626h-.916Zm.518,4.788h.428c1.485,0,2.453-.6,2.453-2.206a1.9,1.9,0,0,0-2.123-2.131h-.758Z" fill="#fff"/>
      <rect id="Rectangle_18" data-name="Rectangle 18" width="0.518" height="5.238" transform="translate(195.245 53.966)" fill="#fff"/>
      <path id="Path_277" data-name="Path 277" d="M30.21,64.317h1.83c.676,0,1.689.2,1.689,1.344a1.168,1.168,0,0,1-1.043,1.17v.015a1.217,1.217,0,0,1,1.2,1.193c0,1.321-1.186,1.516-1.847,1.516H30.21Zm1.05,2.117h.428c.443,0,.991-.1.991-.638,0-.608-.533-.653-1.014-.653H31.26Zm0,2.3h.5c.487,0,1.08-.12,1.08-.728,0-.683-.555-.788-1.08-.788h-.5Z" fill="#fff"/>
      <path id="Path_278" data-name="Path 278" d="M38.366,69.555h-.953V69.03H37.4a1.611,1.611,0,0,1-1.268.615c-.915,0-1.313-.645-1.313-1.516V65.691h1v2.063c0,.473.008,1.11.653,1.11.728,0,.886-.787.886-1.283v-1.89h1.005Z" fill="#fff"/>
      <path id="Path_279" data-name="Path 279" d="M39.514,65.69h.953v.525h.015A1.445,1.445,0,0,1,41.75,65.6c.916,0,1.313.645,1.313,1.515v2.439H42.058V67.491c0-.473-.007-1.111-.653-1.111-.728,0-.885.788-.885,1.283v1.891H39.514Z" fill="#fff"/>
      <path id="Path_280" data-name="Path 280" d="M46.785,69.119H46.77a1.435,1.435,0,0,1-1.185.525c-1.186,0-1.621-.975-1.621-2.033S44.4,65.6,45.585,65.6a1.374,1.374,0,0,1,1.155.54h.015V63.927h1v5.628h-.975Zm-.923-.255c.668,0,.886-.705.886-1.253s-.256-1.231-.9-1.231-.833.713-.833,1.231.188,1.253.848,1.253" fill="#fff"/>
      <path id="Path_281" data-name="Path 281" d="M52.007,69.337a2.646,2.646,0,0,1-1.328.308,1.836,1.836,0,0,1-2.018-2A1.807,1.807,0,0,1,50.454,65.6c1.433,0,1.838.982,1.838,2.334H49.621a1.011,1.011,0,0,0,1.1.975,2.6,2.6,0,0,0,1.283-.391Zm-.675-2.093c-.03-.488-.255-.908-.818-.908a.875.875,0,0,0-.893.908Z" fill="#fff"/>
      <path id="Path_282" data-name="Path 282" d="M55.489,66.5a2.469,2.469,0,0,0-.9-.165c-.27,0-.593.1-.593.428,0,.615,1.748.225,1.748,1.621,0,.9-.8,1.26-1.621,1.26a4.473,4.473,0,0,1-1.14-.165l.06-.825a2.214,2.214,0,0,0,.99.255c.255,0,.661-.1.661-.473,0-.758-1.749-.24-1.749-1.636,0-.833.728-1.2,1.516-1.2a4.646,4.646,0,0,1,1.1.142Z" fill="#fff"/>
      <path id="Path_283" data-name="Path 283" d="M56.81,65.893a3.458,3.458,0,0,1,1.343-.293c1.178,0,1.665.488,1.665,1.628v.5c0,.39.008.684.016.969s.022.562.045.863h-.886a4.93,4.93,0,0,1-.045-.578h-.015a1.379,1.379,0,0,1-1.193.667A1.232,1.232,0,0,1,56.389,68.5a1.137,1.137,0,0,1,.661-1.1,3.069,3.069,0,0,1,1.3-.225H58.9c0-.622-.277-.833-.87-.833a2.015,2.015,0,0,0-1.193.421Zm1.178,3.016a.853.853,0,0,0,.705-.345,1.281,1.281,0,0,0,.21-.8h-.435c-.45,0-1.118.076-1.118.668,0,.33.278.473.638.473" fill="#fff"/>
      <path id="Path_284" data-name="Path 284" d="M60.907,65.69h.938v.54h.015a1.361,1.361,0,0,1,1.148-.63,1.126,1.126,0,0,1,1.14.683,1.325,1.325,0,0,1,1.209-.683c.952,0,1.223.652,1.223,1.515v2.439H65.574v-2.3c0-.361,0-.871-.578-.871-.668,0-.75.8-.75,1.3v1.876H63.24v-2.3c0-.361,0-.871-.577-.871-.668,0-.751.8-.751,1.3v1.876h-1Z" fill="#fff"/>
      <path id="Path_285" data-name="Path 285" d="M68.035,66.426h-.742v-.735h.742v-.773l1-.323v1.1h.894v.735H69.04v1.8c0,.33.091.637.473.637a.9.9,0,0,0,.458-.1l.031.795a2.656,2.656,0,0,1-.744.09,1.136,1.136,0,0,1-1.223-1.253Z" fill="#fff"/>
      <path id="Path_286" data-name="Path 286" d="M73.3,66.426H72.56v-.735H73.3V65.15a1.182,1.182,0,0,1,1.231-1.313,3.544,3.544,0,0,1,.735.083l-.082.833a.777.777,0,0,0-.436-.136c-.337,0-.442.293-.442.593v.481h.878v.735h-.878v3.129H73.3Z" fill="#fff"/>
      <path id="Path_287" data-name="Path 287" d="M79.516,69.555h-.953V69.03h-.015a1.613,1.613,0,0,1-1.268.615c-.916,0-1.314-.645-1.314-1.516V65.691h1.006v2.063c0,.473.007,1.111.653,1.111.727,0,.885-.788.885-1.284v-1.89h1.006Zm-2.979-5.44h.871v.871h-.871Zm2.416.87h-.871v-.871h.871Z" fill="#fff"/>
      <path id="Path_288" data-name="Path 288" d="M80.686,65.69h.893v.878h.015a1.184,1.184,0,0,1,1.058-.968,1.1,1.1,0,0,1,.308.03v1.013a1.016,1.016,0,0,0-.45-.083c-.818,0-.818,1.021-.818,1.576v1.418H80.686Z" fill="#fff"/>
      <path id="Path_289" data-name="Path 289" d="M85.984,64.317h1.05v2.251l1.891-2.251h1.291l-2.153,2.469,2.243,2.769H88.933l-1.884-2.431h-.015v2.431h-1.05Z" fill="#fff"/>
      <path id="Path_290" data-name="Path 290" d="M94.56,69.555h-.953V69.03h-.015a1.611,1.611,0,0,1-1.268.615c-.915,0-1.313-.645-1.313-1.516V65.691h1.006v2.063c0,.473.007,1.11.652,1.11.728,0,.886-.787.886-1.283v-1.89h1Z" fill="#fff"/>
      <rect id="Rectangle_19" data-name="Rectangle 19" width="1.006" height="5.628" transform="translate(95.731 63.927)" fill="#fff"/>
      <path id="Path_291" data-name="Path 291" d="M98.238,66.426H97.5v-.735h.743v-.773l1-.323v1.1h.893v.735h-.893v1.8c0,.33.09.637.473.637a.905.905,0,0,0,.458-.1l.03.795a2.648,2.648,0,0,1-.743.09,1.136,1.136,0,0,1-1.223-1.253Z" fill="#fff"/>
      <path id="Path_292" data-name="Path 292" d="M104.488,69.555h-.953V69.03h-.015a1.611,1.611,0,0,1-1.268.615c-.915,0-1.313-.645-1.313-1.516V65.691h1v2.063c0,.473.008,1.11.653,1.11.728,0,.886-.787.886-1.283v-1.89h1Z" fill="#fff"/>
      <path id="Path_293" data-name="Path 293" d="M105.658,65.69h.893v.878h.015a1.184,1.184,0,0,1,1.058-.968,1.1,1.1,0,0,1,.308.03v1.013a1.016,1.016,0,0,0-.45-.083c-.818,0-.818,1.021-.818,1.576v1.418h-1.006Z" fill="#fff"/>
      <path id="Path_294" data-name="Path 294" d="M110.956,64.317h1.83c.676,0,1.689.2,1.689,1.344a1.168,1.168,0,0,1-1.043,1.17v.015a1.216,1.216,0,0,1,1.2,1.193c0,1.321-1.185,1.516-1.846,1.516h-1.83Zm1.05,2.117h.428c.443,0,.99-.1.99-.638,0-.608-.532-.653-1.013-.653h-.405Zm0,2.3h.5c.488,0,1.081-.12,1.081-.728,0-.683-.556-.788-1.081-.788h-.5Z" fill="#fff"/>
      <path id="Path_295" data-name="Path 295" d="M117.154,64.317h1.185l2.057,5.238h-1.163l-.451-1.2h-2.123l-.458,1.2h-1.088Zm.578,1.051h-.015l-.758,2.161h1.531Z" fill="#fff"/>
      <path id="Path_296" data-name="Path 296" d="M121.184,64.317h1.05v2.251l1.891-2.251h1.291l-2.153,2.469,2.243,2.769h-1.373l-1.884-2.431h-.015v2.431h-1.05Z" fill="#fff"/>
      <path id="Path_297" data-name="Path 297" d="M21.516,1.988A28.7,28.7,0,0,0,10.9.25h0A28.716,28.716,0,0,0,.286,1.988s-.355,7.7,1.152,12.048a16.091,16.091,0,0,0,9.462,9.8h0a16.1,16.1,0,0,0,9.462-9.8c1.506-4.352,1.15-12.048,1.15-12.048" fill="#1a1818"/>
      <path id="Path_298" data-name="Path 298" d="M21.516,1.988A28.7,28.7,0,0,0,10.9.25h0A28.716,28.716,0,0,0,.286,1.988s-.355,7.7,1.152,12.048a16.091,16.091,0,0,0,9.462,9.8h0a16.1,16.1,0,0,0,9.462-9.8C21.872,9.684,21.516,1.988,21.516,1.988Z" fill="none" stroke="#fff" stroke-width="0.5"/>
      <path id="Path_299" data-name="Path 299" d="M17.955,8.623v4.24H13.008v4.948H8.767V12.863H3.82V8.623H8.767V3.677h4.24V8.623Z" fill="#fff"/>
    </g>
  </g>
</svg>
